<?xml version="1.0" encoding="UTF-8" standalone="no"?>
<svg
   height="8in"
   viewBox="-48.583132 -136.22853 945.63395 242.4219"
   width="28in"
   version="1.1"
   id="svg10"
   sodipodi:docname="APIistic.logo.svg"
   xml:space="preserve"
   inkscape:version="1.3 (0e150ed, 2023-07-21)"
   xmlns:inkscape="http://www.inkscape.org/namespaces/inkscape"
   xmlns:sodipodi="http://sodipodi.sourceforge.net/DTD/sodipodi-0.dtd"
   xmlns="http://www.w3.org/2000/svg"
   xmlns:svg="http://www.w3.org/2000/svg"><defs
     id="defs10"><linearGradient
       id="editing-outline-gradient"
       x1="-12.846342"
       x2="212.19125"
       y1="-52.737274"
       y2="-28.232988"
       gradientTransform="scale(2.0876836,0.47899979)"
       gradientUnits="userSpaceOnUse"><stop
         offset="0"
         stop-color="#d39182"
         id="stop1" /><stop
         offset="1"
         stop-color="#7fde2b"
         id="stop2" /></linearGradient><filter
       id="editing-outline"
       x="-0.0068536965"
       y="-0.026445698"
       width="1.0137074"
       height="1.0528914"><feMorphology
         in="SourceGraphic"
         operator="dilate"
         radius="3"
         result="outline"
         id="feMorphology2" /><feComposite
         operator="out"
         in="outline"
         in2="SourceAlpha"
         id="feComposite2" /></filter></defs><sodipodi:namedview
     id="namedview10"
     pagecolor="#ffffff"
     bordercolor="#000000"
     borderopacity="0"
     inkscape:showpageshadow="2"
     inkscape:pageopacity="0.0"
     inkscape:pagecheckerboard="0"
     inkscape:deskcolor="#d1d1d1"
     inkscape:zoom="0.25835946"
     inkscape:cx="1596.6127"
     inkscape:cy="1074.0849"
     inkscape:window-width="1624"
     inkscape:window-height="834"
     inkscape:window-x="0"
     inkscape:window-y="25"
     inkscape:window-maximized="0"
     inkscape:current-layer="svg10"
     inkscape:document-units="in" /><path
     d="m 768.16127,8.6576603 h -44.9299 c 0.008,0.27017 0.0142,0.53689 0.0255,0.80363 0.017,0.51612 0.0483,1.0287897 0.0738,1.5449097 0.0114,0.22169 0.0199,0.44338 0.0341,0.6616 0.0341,0.5958 0.0766,1.1916 0.12205,1.783931 0.0114,0.1351 0.0199,0.27019 0.0311,0.39836 0.0511,0.66161 0.11069,1.32322 0.17314,1.97789 0.003,0.0623 0.008,0.12815 0.017,0.19052 0.071,0.70665 0.14477,1.41675 0.22991,2.11993 0,0.0105 0,0.0207 0.003,0.0277 a 75.51711,92.157941 0 0 0 2.32186,12.95512 c 0.006,0.0173 0.0114,0.0346 0.0141,0.0519 0.1618,0.672 0.3321,1.33706 0.50525,1.998679 0.0114,0.0382 0.0227,0.0797 0.0311,0.11777 0.008,0.0381 0.0199,0.0761 0.0312,0.11777 0.15894,0.59925 0.32642,1.19505 0.49388,1.79431 0.0426,0.14897 0.0852,0.30135 0.13058,0.45378 0.15043,0.51613 0.30371,1.03225 0.46267,1.55184 0.0738,0.23207 0.14475,0.46415 0.21572,0.69971 0.13909,0.42953 0.27248,0.8556 0.41158,1.28165 0.10502,0.32216 0.21288,0.64429 0.32358,0.96298 0.11353,0.336 0.22708,0.66508 0.34346,1.00108 0.14191,0.40874 0.29236,0.81402 0.43995,1.22277 0.088,0.24248 0.17883,0.48147 0.26681,0.72395 0.18167,0.48842 0.369,0.97684 0.55919,1.46179 0.0626,0.15587 0.12205,0.31175 0.1845,0.46417 0.22139,0.56115 0.44563,1.11192 0.6727,1.66269 0.0396,0.0831 0.071,0.16973 0.10787,0.25287 0.25545,0.60965 0.51659,1.21583 0.78625,1.81855 0.0114,0.0277 0.0256,0.0519 0.0341,0.0831 0.0568,0.12473 0.11922,0.24593 0.17599,0.37064 l 38.37307,-28.206799 0.14192,-0.10399 c -1.51289,-3.89344 -2.45526,-8.036321 -2.80723,-12.2449907 z"
     fill="#93d500"
     id="path1"
     style="fill:#7fb266;fill-opacity:1;stroke-width:0.313565" /><path
     d="m 779.20571,33.83005 -0.10787,0.13164 -31.64877,38.61938 c 0.1618,0.18358 0.32358,0.37411 0.49106,0.55077 0.29518,0.32907 0.59607,0.65122 0.89411,0.97336 0.15611,0.16626 0.30654,0.33254 0.46266,0.49882 0.35764,0.37756 0.72097,0.74474 1.08145,1.11538 0.0994,0.10042 0.19302,0.19744 0.29237,0.29789 a 72.544113,88.529817 0 0 0 1.39368,1.3648 c 0.44847,0.43298 0.8998,0.85212 1.35962,1.27473 0.0199,0.0139 0.0341,0.0277 0.0512,0.045 a 75.639164,92.30689 0 0 0 5.92102,4.88415 c 0.0681,0.0554 0.13909,0.10397 0.21005,0.15934 0.38887,0.28058 0.77489,0.56116 1.16659,0.83827 l 0.71531,0.4988 c 0.22707,0.15934 0.45131,0.31177 0.67839,0.46417 0.41157,0.27365 0.82315,0.54731 1.23756,0.81403 0.0568,0.0382 0.11354,0.0762 0.17315,0.11081 1.14957,0.73435 2.31901,1.41675 3.49981,2.0749 l 1.12403,-3.32885 15.91806,-47.16837 0.0568,-0.17319 c -1.73715,-1.13619 -3.40332,-2.48018 -4.97014,-4.04589 z"
     fill="#4d5a31"
     id="path2"
     style="fill:#7fb266;fill-opacity:1;stroke-width:0.313565" /><path
     d="m 775.91026,29.981621 a 27.10498,33.077789 0 0 1 -0.98778,-1.42021 c -0.28384,-0.42606 -0.55634,-0.85559 -0.82031,-1.29205 -0.30372,-0.49879 -0.59892,-1.00455 -0.87993,-1.5172 -0.281,-0.51612 -0.55917,-1.03572 -0.82031,-1.56223 L 733.9806,52.43136 c 0.5904,1.19853 1.2035,2.36241 1.83364,3.51245 0.0199,0.0416 0.0397,0.0831 0.0625,0.12118 0.006,0.0173 0.0142,0.0277 0.0227,0.045 0.0199,0.0346 0.0396,0.0763 0.0596,0.11422 0.003,0.004 0.006,0.007 0.006,0.0139 0.0511,0.09 0.10221,0.18013 0.15328,0.27365 0.003,0.004 0.006,0.0105 0.0114,0.0173 0.006,0.007 0.003,0.004 0.003,0.007 0.66704,1.202 1.35394,2.38664 2.06072,3.5436 0.0142,0.0243 0.0311,0.0485 0.0454,0.0727 0.017,0.0243 0.0312,0.0484 0.0454,0.0727 0.3094,0.49535 0.61595,0.99069 0.93385,1.48257 0.0426,0.0658 0.0823,0.12815 0.12775,0.19051 0.32358,0.5092 0.65568,1.01147 0.99345,1.50681 0.0795,0.11777 0.16179,0.23555 0.24126,0.3568 0.30372,0.44337 0.60744,0.8833 0.91683,1.31974 0.1334,0.18706 0.26966,0.37758 0.40589,0.56116 0.26399,0.36718 0.52513,0.73436 0.79477,1.09461 0.1476,0.19745 0.30088,0.39836 0.45132,0.59579 0.0681,0.0935 0.13624,0.18014 0.2072,0.27366 0.19586,0.25979 0.39171,0.51959 0.59041,0.77593 0.0795,0.10042 0.16463,0.2009 0.2441,0.30481 0.34913,0.44338 0.70394,0.89023 1.06158,1.32668 l 31.69704,-38.674799 c -0.36333,-0.44339 -0.70394,-0.90062 -1.03888,-1.35787 z"
     fill="#6ba43a"
     id="path3"
     style="fill:#7fb266;fill-opacity:1;stroke-width:0.313565" /><path
     d="m 836.69295,82.16578 -0.78342,-1.58996 -21.57225,-43.69057 c -0.43712,0.31868 -0.88276,0.60964 -1.3284,0.90061 -0.45131,0.29791 -0.90263,0.57154 -1.36246,0.83827 -4.14414,2.39705 -8.62891,3.62327 -13.12219,3.62327 -2.94347,0 -5.8841,-0.51957 -8.72824,-1.5553 -0.48537,-0.17666 -0.95939,-0.40874 -1.43625,-0.61658 -0.4797,-0.20437 -0.96508,-0.3845 -1.43627,-0.62004 l -15.90671,47.13719 -0.62161,1.84629 -0.53363,1.58303 -0.003,0.007 c 0.0396,0.0207 0.0823,0.0382 0.12205,0.0589 0.0454,0.0207 0.088,0.0382 0.13058,0.0623 h 0.006 c 0.0114,0.007 0.0226,0.0105 0.0311,0.0139 0.37469,0.1905 0.75219,0.34985 1.12971,0.52997 0.47402,0.22516 0.9452,0.45376 1.41923,0.66507 0.24409,0.10741 0.48254,0.23209 0.7238,0.336 h 0.003 a 75.905979,92.6325 0 0 0 15.3816,4.49273 c 0.20719,0.0311 0.40873,0.0658 0.61594,0.10042 0.21289,0.0311 0.4286,0.0554 0.64433,0.0866 0.40306,0.0554 0.80613,0.1108 1.21202,0.15933 l 0.30087,0.0311 c 0.49673,0.0589 0.99347,0.11081 1.48735,0.1524 0.17032,0.0173 0.34063,0.0243 0.50808,0.0416 0.43429,0.0346 0.86857,0.0658 1.30286,0.09 0.26682,0.0208 0.53363,0.0277 0.80044,0.0416 0.34629,0.0139 0.68974,0.0311 1.03605,0.045 0.49673,0.0139 0.99913,0.0173 1.4987,0.0208 0.11921,0 0.23558,0.004 0.3548,0.007 4.18673,0 8.37344,-0.42606 12.51476,-1.27472 0.0681,-0.0139 0.13907,-0.0277 0.21004,-0.0382 0.43712,-0.0935 0.87425,-0.19397 1.31137,-0.29096 0.24978,-0.0589 0.5024,-0.11777 0.7465,-0.17666 0.25547,-0.0658 0.51376,-0.12814 0.76923,-0.19744 0.42577,-0.10739 0.85154,-0.22169 1.28015,-0.34293 0.0766,-0.0208 0.15326,-0.0382 0.22991,-0.0658 6.29569,-1.78737 12.37567,-4.55852 18.08664,-8.22683 v -0.004 c 0.37468,-0.23903 0.74084,-0.51266 1.11267,-0.76207 0.4428,-0.29443 0.88276,-0.60271 1.32556,-0.91101 0.30371,-0.2113 0.6131,-0.40874 0.91683,-0.63044 0.003,-0.004 0.006,-0.007 0.008,-0.007 h 0.003 c 0.006,-0.004 0.008,-0.007 0.0142,-0.0105 l 0.006,-0.007 -0.0568,-0.11423 0.0568,0.11423 c 0.003,0 0.006,-0.004 0.008,-0.004 0.006,-0.004 0.008,-0.007 0.0142,-0.0105 0.017,-0.0139 0.0341,-0.0243 0.0511,-0.0382 0.0965,-0.0727 0.19585,-0.14203 0.2952,-0.21478 z M 779.22274,-23.90679 c 0.34913,-0.34639 0.70394,-0.67893 1.05875,-1.00454 l -0.0766,-0.15935 -23.11071,-46.81158 c -1.07295,0.85559 -2.13169,1.73889 -3.16773,2.66376 -2.23386,2.00909 -4.3996,4.1879 -6.48019,6.53298 l 31.65161,38.62287 z"
     fill="#93d500"
     id="path5"
     style="fill:#7fb266;fill-opacity:1;stroke-width:0.313565" /><path
     d="m 745.25211,-60.11182 c -0.36048,0.43993 -0.7011,0.8937 -1.05307,1.33708 -0.34913,0.44684 -0.70678,0.89023 -1.05023,1.34055 -2.31083,3.04869 -4.45022,6.28444 -6.40356,9.68515 -0.0937,0.15588 -0.1845,0.32215 -0.27817,0.48149 -0.21572,0.38795 -0.43144,0.77245 -0.64148,1.16042 -0.22141,0.40181 -0.43997,0.81055 -0.65284,1.21584 -0.0795,0.14894 -0.15897,0.30136 -0.2356,0.4503 -7.28064,13.93541 -11.18069,29.74135 -11.70579,45.6789003 -0.0199,0.62004 -0.0311,1.24008 -0.0426,1.85667 -0.008,0.61658 -0.0255,1.23662 -0.0255,1.85321 H 767.991 c 0,-0.61659 0.0454,-1.23317 0.0738,-1.85321 0.0255,-0.62005 0.0311,-1.24009 0.0823,-1.85667 0.57905,-7.12185 2.83278,-14.0774203 6.76119,-19.9176303 0.31791,-0.47455 0.6784,-0.92139 1.02185,-1.37863 0.33778,-0.4607 0.65568,-0.93526 1.01901,-1.37865 z m 76.60969,-22.060431 c -4.89855,-2.08514 -8.36695,-3.28571 -13.51083,-4.10952 l -0.63014,-0.10399 c -0.21289,-0.0312 -0.42292,-0.0555 -0.63296,-0.0831 -0.4059,-0.0589 -0.80896,-0.11423 -1.21771,-0.16281 -0.11069,-0.0139 -0.22424,-0.0207 -0.34061,-0.0381 -0.4797,-0.0519 -0.96507,-0.10398 -1.44761,-0.14895 l -0.56485,-0.0416 c -0.41158,-0.0311 -0.83167,-0.0692 -1.24325,-0.09 -0.2214,-0.0139 -0.44279,-0.0243 -0.66136,-0.0311 v 54.830591 c 2.30483,0.29096 4.58978,0.89023 6.80662,1.80817 L 820.52067,-76.799 Z"
     fill="#4d5a31"
     id="path6"
     style="fill:#7fb266;fill-opacity:1;stroke-width:0.313565"
     sodipodi:nodetypes="cccccccccccccccccccccccccccccccc" /><path
     d="m 797.05392,-87.026581 c -0.50808,0.0139 -1.01617,0.0139 -1.52141,0.0381 -3.17056,0.15588 -6.33544,0.55077 -9.47477,1.19507 -0.0681,0.0139 -0.13624,0.0277 -0.2072,0.0416 -0.43997,0.0935 -0.8771,0.19052 -1.31421,0.29097 -0.24695,0.0589 -0.49672,0.11424 -0.74651,0.1732 -0.25829,0.0623 -0.51376,0.12814 -0.77206,0.19744 -0.42577,0.1074 -0.85154,0.22169 -1.27447,0.34293 -0.0795,0.0173 -0.15611,0.0416 -0.23275,0.0624 a 75.918752,92.648088 0 0 0 -18.08948,8.230311 c -0.37184,0.24247 -0.73516,0.51613 -1.107,0.76207 -0.44279,0.2979 -0.88559,0.60272 -1.32556,0.91101 -0.32642,0.23208 -0.65852,0.44337 -0.98494,0.67894 -0.003,0.004 -0.008,0.007 -0.0114,0.007 -0.0227,0.0173 -0.0453,0.0346 -0.0681,0.0485 -0.0852,0.0658 -0.17314,0.11777 -0.25829,0.18014 l 0.003,0.007 0.78625,1.58995 22.35283,45.28399 c 0.43713,-0.31868 0.88277,-0.6131 1.32839,-0.90409 0.44849,-0.29442 0.90264,-0.57154 1.35963,-0.8348 a 30.442437,37.150682 0 0 1 10.03677,-3.43274 c 0.50525,-0.0623 1.0105,-0.11423 1.51858,-0.14551 0.50525,-0.0311 1.01333,-0.0623 1.52142,-0.0623 v -54.698961 c -0.50809,0 -1.01333,0.0277 -1.51858,0.0382 z"
     fill="#6ba43a"
     id="path7"
     style="fill:#7fb266;fill-opacity:1;stroke-width:0.313565" /><path
     d="m 26.415975,130.27972 3.7,-16.3 h 27.13 l 3.83,16.3 h 34.67 l -26.58,-102.75 h -50.83 l -26.5800002,102.75 z m 16.44,-71.24 h 1.78 l 6.58,28.77 h -15.07 z m 113.439995,46.44 v 0 h -21.37 v 24.8 h -32.88 v -102.75 h 51.78 v 0 c 23.56667,0 35.35,12.65 35.35,37.95 v 0 0 c 0,5.573333 -0.54667,10.78 -1.64,15.62 v 0 0 c -1.1,4.84 -2.95,9.063333 -5.55,12.67 v 0 0 c -2.60667,3.606667 -5.98667,6.46 -10.14,8.56 v 0 0 c -4.15333,2.1 -9.33667,3.15 -15.55,3.15 z m -13.84,-51.65 v 0 h -7.53 v 25.35 h 7.53 v 0 c 4.02,0 6.92,-0.41 8.7,-1.23 v 0 0 c 1.78,-0.826667 2.67,-2.746667 2.67,-5.76 v 0 -11.51 0 c 0,-2.92 -0.89,-4.79 -2.67,-5.61 v 0 0 c -1.78,-0.826667 -4.68,-1.24 -8.7,-1.24 z m 56.58,76.45 h 32.88 v -102.75 h -32.88 z m 57.27,-78.91 v 0 0 c 7.03333,-3.84 16.67,-5.76 28.91,-5.76 v 0 0 c 12.32667,0 23.60667,1.69 33.84,5.07 v 0 l -3.84,22.33 v 0 c -4.29333,-1.273333 -8.54,-2.186667 -12.74,-2.74 v 0 0 c -4.2,-0.546667 -8.49333,-0.82 -12.88,-0.82 v 0 0 c -1.28,0 -2.85667,0.04667 -4.73,0.14 v 0 0 c -1.86667,0.09333 -3.99,0.276667 -6.37,0.55 v 0 5.2 0 c 5.02667,0 10.18667,0.253333 15.48,0.76 v 0 0 c 5.3,0.5 10.12,1.686667 14.46,3.56 v 0 0 c 4.34,1.873333 7.9,4.66 10.68,8.36 v 0 0 c 2.78667,3.693333 4.18,8.736667 4.18,15.13 v 0 0 c 0,4.48 -0.5,8.47667 -1.5,11.99 v 0 0 c -1.00667,3.52 -2.56,6.33 -4.66,8.43 v 0 0 c -2.19333,2.1 -4.45333,3.79 -6.78,5.07 v 0 0 c -2.33333,1.27333 -5.37,2.18667 -9.11,2.74 v 0 0 c -2.92667,0.45333 -6.05667,0.79333 -9.39,1.02 v 0 0 c -3.33333,0.23333 -6.91667,0.35 -10.75,0.35 v 0 0 c -13.42667,0 -25.71333,-1.6 -36.86,-4.8 v 0 l 4.11,-23.29 v 0 c 4.66,1.37333 9.45667,2.42333 14.39,3.15 v 0 0 c 4.93333,0.73333 10.09333,1.1 15.48,1.1 v 0 0 c 2.46667,0 4.81667,-0.0467 7.05,-0.14 v 0 0 c 2.24,-0.0933 4.41,-0.27667 6.51,-0.55 v 0 -5.2 0 c -8.76667,0 -16.09667,-0.57333 -21.99,-1.72 v 0 0 c -5.88667,-1.14 -10.63333,-2.896667 -14.24,-5.27 v 0 0 c -3.61333,-2.373333 -6.17333,-5.48 -7.68,-9.32 v 0 0 c -1.50667,-3.833333 -2.26,-8.4 -2.26,-13.7 v 0 0 c 0,-10.593333 3.56333,-17.806667 10.69,-21.64 z m 81.79,63.43 v -45.49 h -8.22 v -21.23 h 8.22 v -13.15 l 32.88,-8.22 v 21.37 h 11.37 v 21.23 h -11.37 v 37.41 0 c 1.36667,0.27333 2.87333,0.52333 4.52,0.75 v 0 0 c 1.64667,0.22667 3.38333,0.38667 5.21,0.48 v 0 l -1.51,24.11 v 0 c -14.98,0 -24.75333,-0.82333 -29.32,-2.47 v 0 0 c -3.83333,-1.36667 -6.75667,-3.12333 -8.77,-5.27 v 0 0 c -2.00667,-2.14667 -3.01,-5.32 -3.01,-9.52 z m 89.46,-66.72 v 82.2 h -32.88 v -78.09 z m -34.66,-15.48 v 0 0 c 0,-2.466667 0.27333,-4.543333 0.82,-6.23 v 0 0 c 0.54667,-1.693333 1.50667,-3.063333 2.88,-4.11 v 0 0 c 1.36667,-1.053333 3.23667,-1.81 5.61,-2.27 v 0 0 c 2.38,-0.453333 5.39667,-0.68 9.05,-0.68 v 0 0 c 3.65333,0 6.64333,0.226667 8.97,0.68 v 0 0 c 2.32667,0.46 4.17667,1.216667 5.55,2.27 v 0 0 c 1.36667,1.046667 2.32667,2.416667 2.88,4.11 v 0 0 c 0.54667,1.686667 0.82,3.763333 0.82,6.23 v 0 0 c 0,2.466667 -0.27333,4.52 -0.82,6.16 v 0 0 c -0.55333,1.646667 -1.51333,2.996667 -2.88,4.05 v 0 0 c -1.37333,1.046667 -3.22333,1.776667 -5.55,2.19 v 0 0 c -2.32667,0.406667 -5.31667,0.61 -8.97,0.61 v 0 0 c -2.65333,0 -5.09667,-0.09 -7.33,-0.27 v 0 0 c -2.24,-0.18 -4.18333,-0.706667 -5.83,-1.58 v 0 0 c -1.64,-0.866667 -2.91667,-2.166667 -3.83,-3.9 v 0 0 c -0.91333,-1.733333 -1.37,-4.153333 -1.37,-7.26 z"
     fill="url(#editing-outline-gradient)"
     id="path2-3"
     style="fill:#7fb266;fill-opacity:1;filter:url(#editing-outline)"
     transform="matrix(1.6250601,0,0,2.063729,13.595849,-176.02039)"
     sodipodi:nodetypes="ccccccccccccccsccccccsscsscsscsscsssccccsscssccsscsscccccscsscssccsscsscsscssccsscsscsscsscsscsscsscsscsscsscssccsscsscsscssccsscsscsscsscssscccccccccccsscssccsscsscsscccccscsscsscsscsscsscsscsscsscsscsscsscsscsscsscsscss" /><style
     id="style3">text {&#10;  font-size: 64px;&#10;  font-family: Arial Black;&#10;  dominant-baseline: central;&#10;  text-anchor: middle;&#10;}</style></svg>
