<?xml version="1.0" encoding="utf-8" standalone="no"?>
<!DOCTYPE svg PUBLIC "-//W3C//DTD SVG 1.1//EN"
  "http://www.w3.org/Graphics/SVG/1.1/DTD/svg11.dtd">
<svg xmlns:xlink="http://www.w3.org/1999/xlink" width="864pt" height="504pt" viewBox="0 0 864 504" xmlns="http://www.w3.org/2000/svg" version="1.1">
 <metadata>
  <rdf:RDF xmlns:dc="http://purl.org/dc/elements/1.1/" xmlns:cc="http://creativecommons.org/ns#" xmlns:rdf="http://www.w3.org/1999/02/22-rdf-syntax-ns#">
   <cc:Work>
    <dc:type rdf:resource="http://purl.org/dc/dcmitype/StillImage"/>
    <dc:date>2023-11-17T23:34:02.701328</dc:date>
    <dc:format>image/svg+xml</dc:format>
    <dc:creator>
     <cc:Agent>
      <dc:title>Matplotlib v3.8.0, https://matplotlib.org/</dc:title>
     </cc:Agent>
    </dc:creator>
   </cc:Work>
  </rdf:RDF>
 </metadata>
 <defs>
  <style type="text/css">*{stroke-linejoin: round; stroke-linecap: butt}</style>
 </defs>
 <g id="figure_1">
  <g id="patch_1">
   <path d="M 0 504 
L 864 504 
L 864 0 
L 0 0 
z
" style="fill: #ffffff"/>
  </g>
  <g id="axes_1">
   <g id="patch_2">
    <path d="M 108 448.56 
L 777.6 448.56 
L 777.6 60.48 
L 108 60.48 
z
" style="fill: #eaeaf2"/>
   </g>
   <g id="matplotlib.axis_1">
    <g id="xtick_1">
     <g id="text_1">
      <!-- GitHub -->
      <g style="fill: #262626" transform="translate(149.284453 469.870391) scale(0.165 -0.165)">
       <defs>
        <path id="ArialMT-47" d="M 2638 1797 
L 2638 2334 
L 4578 2338 
L 4578 638 
Q 4131 281 3656 101 
Q 3181 -78 2681 -78 
Q 2006 -78 1454 211 
Q 903 500 622 1047 
Q 341 1594 341 2269 
Q 341 2938 620 3517 
Q 900 4097 1425 4378 
Q 1950 4659 2634 4659 
Q 3131 4659 3532 4498 
Q 3934 4338 4162 4050 
Q 4391 3763 4509 3300 
L 3963 3150 
Q 3859 3500 3706 3700 
Q 3553 3900 3268 4020 
Q 2984 4141 2638 4141 
Q 2222 4141 1919 4014 
Q 1616 3888 1430 3681 
Q 1244 3475 1141 3228 
Q 966 2803 966 2306 
Q 966 1694 1177 1281 
Q 1388 869 1791 669 
Q 2194 469 2647 469 
Q 3041 469 3416 620 
Q 3791 772 3984 944 
L 3984 1797 
L 2638 1797 
z
" transform="scale(0.015625)"/>
        <path id="ArialMT-69" d="M 425 3934 
L 425 4581 
L 988 4581 
L 988 3934 
L 425 3934 
z
M 425 0 
L 425 3319 
L 988 3319 
L 988 0 
L 425 0 
z
" transform="scale(0.015625)"/>
        <path id="ArialMT-74" d="M 1650 503 
L 1731 6 
Q 1494 -44 1306 -44 
Q 1000 -44 831 53 
Q 663 150 594 308 
Q 525 466 525 972 
L 525 2881 
L 113 2881 
L 113 3319 
L 525 3319 
L 525 4141 
L 1084 4478 
L 1084 3319 
L 1650 3319 
L 1650 2881 
L 1084 2881 
L 1084 941 
Q 1084 700 1114 631 
Q 1144 563 1211 522 
Q 1278 481 1403 481 
Q 1497 481 1650 503 
z
" transform="scale(0.015625)"/>
        <path id="ArialMT-48" d="M 513 0 
L 513 4581 
L 1119 4581 
L 1119 2700 
L 3500 2700 
L 3500 4581 
L 4106 4581 
L 4106 0 
L 3500 0 
L 3500 2159 
L 1119 2159 
L 1119 0 
L 513 0 
z
" transform="scale(0.015625)"/>
        <path id="ArialMT-75" d="M 2597 0 
L 2597 488 
Q 2209 -75 1544 -75 
Q 1250 -75 995 37 
Q 741 150 617 320 
Q 494 491 444 738 
Q 409 903 409 1263 
L 409 3319 
L 972 3319 
L 972 1478 
Q 972 1038 1006 884 
Q 1059 663 1231 536 
Q 1403 409 1656 409 
Q 1909 409 2131 539 
Q 2353 669 2445 892 
Q 2538 1116 2538 1541 
L 2538 3319 
L 3100 3319 
L 3100 0 
L 2597 0 
z
" transform="scale(0.015625)"/>
        <path id="ArialMT-62" d="M 941 0 
L 419 0 
L 419 4581 
L 981 4581 
L 981 2947 
Q 1338 3394 1891 3394 
Q 2197 3394 2470 3270 
Q 2744 3147 2920 2923 
Q 3097 2700 3197 2384 
Q 3297 2069 3297 1709 
Q 3297 856 2875 390 
Q 2453 -75 1863 -75 
Q 1275 -75 941 416 
L 941 0 
z
M 934 1684 
Q 934 1088 1097 822 
Q 1363 388 1816 388 
Q 2184 388 2453 708 
Q 2722 1028 2722 1663 
Q 2722 2313 2464 2622 
Q 2206 2931 1841 2931 
Q 1472 2931 1203 2611 
Q 934 2291 934 1684 
z
" transform="scale(0.015625)"/>
       </defs>
       <use xlink:href="#ArialMT-47"/>
       <use xlink:href="#ArialMT-69" x="77.783203"/>
       <use xlink:href="#ArialMT-74" x="100"/>
       <use xlink:href="#ArialMT-48" x="127.783203"/>
       <use xlink:href="#ArialMT-75" x="200"/>
       <use xlink:href="#ArialMT-62" x="255.615234"/>
      </g>
     </g>
    </g>
    <g id="xtick_2">
     <g id="text_2">
      <!-- SwaggerHub -->
      <g style="fill: #262626" transform="translate(261.187266 470.071484) scale(0.165 -0.165)">
       <defs>
        <path id="ArialMT-53" d="M 288 1472 
L 859 1522 
Q 900 1178 1048 958 
Q 1197 738 1509 602 
Q 1822 466 2213 466 
Q 2559 466 2825 569 
Q 3091 672 3220 851 
Q 3350 1031 3350 1244 
Q 3350 1459 3225 1620 
Q 3100 1781 2813 1891 
Q 2628 1963 1997 2114 
Q 1366 2266 1113 2400 
Q 784 2572 623 2826 
Q 463 3081 463 3397 
Q 463 3744 659 4045 
Q 856 4347 1234 4503 
Q 1613 4659 2075 4659 
Q 2584 4659 2973 4495 
Q 3363 4331 3572 4012 
Q 3781 3694 3797 3291 
L 3216 3247 
Q 3169 3681 2898 3903 
Q 2628 4125 2100 4125 
Q 1550 4125 1298 3923 
Q 1047 3722 1047 3438 
Q 1047 3191 1225 3031 
Q 1400 2872 2139 2705 
Q 2878 2538 3153 2413 
Q 3553 2228 3743 1945 
Q 3934 1663 3934 1294 
Q 3934 928 3725 604 
Q 3516 281 3123 101 
Q 2731 -78 2241 -78 
Q 1619 -78 1198 103 
Q 778 284 539 648 
Q 300 1013 288 1472 
z
" transform="scale(0.015625)"/>
        <path id="ArialMT-77" d="M 1034 0 
L 19 3319 
L 600 3319 
L 1128 1403 
L 1325 691 
Q 1338 744 1497 1375 
L 2025 3319 
L 2603 3319 
L 3100 1394 
L 3266 759 
L 3456 1400 
L 4025 3319 
L 4572 3319 
L 3534 0 
L 2950 0 
L 2422 1988 
L 2294 2553 
L 1622 0 
L 1034 0 
z
" transform="scale(0.015625)"/>
        <path id="ArialMT-61" d="M 2588 409 
Q 2275 144 1986 34 
Q 1697 -75 1366 -75 
Q 819 -75 525 192 
Q 231 459 231 875 
Q 231 1119 342 1320 
Q 453 1522 633 1644 
Q 813 1766 1038 1828 
Q 1203 1872 1538 1913 
Q 2219 1994 2541 2106 
Q 2544 2222 2544 2253 
Q 2544 2597 2384 2738 
Q 2169 2928 1744 2928 
Q 1347 2928 1158 2789 
Q 969 2650 878 2297 
L 328 2372 
Q 403 2725 575 2942 
Q 747 3159 1072 3276 
Q 1397 3394 1825 3394 
Q 2250 3394 2515 3294 
Q 2781 3194 2906 3042 
Q 3031 2891 3081 2659 
Q 3109 2516 3109 2141 
L 3109 1391 
Q 3109 606 3145 398 
Q 3181 191 3288 0 
L 2700 0 
Q 2613 175 2588 409 
z
M 2541 1666 
Q 2234 1541 1622 1453 
Q 1275 1403 1131 1340 
Q 988 1278 909 1158 
Q 831 1038 831 891 
Q 831 666 1001 516 
Q 1172 366 1500 366 
Q 1825 366 2078 508 
Q 2331 650 2450 897 
Q 2541 1088 2541 1459 
L 2541 1666 
z
" transform="scale(0.015625)"/>
        <path id="ArialMT-67" d="M 319 -275 
L 866 -356 
Q 900 -609 1056 -725 
Q 1266 -881 1628 -881 
Q 2019 -881 2231 -725 
Q 2444 -569 2519 -288 
Q 2563 -116 2559 434 
Q 2191 0 1641 0 
Q 956 0 581 494 
Q 206 988 206 1678 
Q 206 2153 378 2554 
Q 550 2956 876 3175 
Q 1203 3394 1644 3394 
Q 2231 3394 2613 2919 
L 2613 3319 
L 3131 3319 
L 3131 450 
Q 3131 -325 2973 -648 
Q 2816 -972 2473 -1159 
Q 2131 -1347 1631 -1347 
Q 1038 -1347 672 -1080 
Q 306 -813 319 -275 
z
M 784 1719 
Q 784 1066 1043 766 
Q 1303 466 1694 466 
Q 2081 466 2343 764 
Q 2606 1063 2606 1700 
Q 2606 2309 2336 2618 
Q 2066 2928 1684 2928 
Q 1309 2928 1046 2623 
Q 784 2319 784 1719 
z
" transform="scale(0.015625)"/>
        <path id="ArialMT-65" d="M 2694 1069 
L 3275 997 
Q 3138 488 2766 206 
Q 2394 -75 1816 -75 
Q 1088 -75 661 373 
Q 234 822 234 1631 
Q 234 2469 665 2931 
Q 1097 3394 1784 3394 
Q 2450 3394 2872 2941 
Q 3294 2488 3294 1666 
Q 3294 1616 3291 1516 
L 816 1516 
Q 847 969 1125 678 
Q 1403 388 1819 388 
Q 2128 388 2347 550 
Q 2566 713 2694 1069 
z
M 847 1978 
L 2700 1978 
Q 2663 2397 2488 2606 
Q 2219 2931 1791 2931 
Q 1403 2931 1139 2672 
Q 875 2413 847 1978 
z
" transform="scale(0.015625)"/>
        <path id="ArialMT-72" d="M 416 0 
L 416 3319 
L 922 3319 
L 922 2816 
Q 1116 3169 1280 3281 
Q 1444 3394 1641 3394 
Q 1925 3394 2219 3213 
L 2025 2691 
Q 1819 2813 1613 2813 
Q 1428 2813 1281 2702 
Q 1134 2591 1072 2394 
Q 978 2094 978 1738 
L 978 0 
L 416 0 
z
" transform="scale(0.015625)"/>
       </defs>
       <use xlink:href="#ArialMT-53"/>
       <use xlink:href="#ArialMT-77" x="66.699219"/>
       <use xlink:href="#ArialMT-61" x="138.916016"/>
       <use xlink:href="#ArialMT-67" x="194.53125"/>
       <use xlink:href="#ArialMT-67" x="250.146484"/>
       <use xlink:href="#ArialMT-65" x="305.761719"/>
       <use xlink:href="#ArialMT-72" x="361.376953"/>
       <use xlink:href="#ArialMT-48" x="394.677734"/>
       <use xlink:href="#ArialMT-75" x="466.894531"/>
       <use xlink:href="#ArialMT-62" x="522.509766"/>
      </g>
     </g>
    </g>
    <g id="xtick_3">
     <g id="text_3">
      <!-- BigQuery -->
      <g style="fill: #262626" transform="translate(408.41168 470.081797) scale(0.165 -0.165)">
       <defs>
        <path id="ArialMT-42" d="M 469 0 
L 469 4581 
L 2188 4581 
Q 2713 4581 3030 4442 
Q 3347 4303 3526 4014 
Q 3706 3725 3706 3409 
Q 3706 3116 3547 2856 
Q 3388 2597 3066 2438 
Q 3481 2316 3704 2022 
Q 3928 1728 3928 1328 
Q 3928 1006 3792 729 
Q 3656 453 3456 303 
Q 3256 153 2954 76 
Q 2653 0 2216 0 
L 469 0 
z
M 1075 2656 
L 2066 2656 
Q 2469 2656 2644 2709 
Q 2875 2778 2992 2937 
Q 3109 3097 3109 3338 
Q 3109 3566 3000 3739 
Q 2891 3913 2687 3977 
Q 2484 4041 1991 4041 
L 1075 4041 
L 1075 2656 
z
M 1075 541 
L 2216 541 
Q 2509 541 2628 563 
Q 2838 600 2978 687 
Q 3119 775 3209 942 
Q 3300 1109 3300 1328 
Q 3300 1584 3169 1773 
Q 3038 1963 2805 2039 
Q 2572 2116 2134 2116 
L 1075 2116 
L 1075 541 
z
" transform="scale(0.015625)"/>
        <path id="ArialMT-51" d="M 3966 491 
Q 4388 200 4744 66 
L 4566 -356 
Q 4072 -178 3581 206 
Q 3072 -78 2456 -78 
Q 1834 -78 1328 222 
Q 822 522 548 1065 
Q 275 1609 275 2291 
Q 275 2969 550 3525 
Q 825 4081 1333 4372 
Q 1841 4663 2469 4663 
Q 3103 4663 3612 4361 
Q 4122 4059 4389 3517 
Q 4656 2975 4656 2294 
Q 4656 1728 4484 1276 
Q 4313 825 3966 491 
z
M 2631 1266 
Q 3156 1119 3497 828 
Q 4031 1316 4031 2294 
Q 4031 2850 3842 3265 
Q 3653 3681 3289 3911 
Q 2925 4141 2472 4141 
Q 1794 4141 1347 3677 
Q 900 3213 900 2291 
Q 900 1397 1342 919 
Q 1784 441 2472 441 
Q 2797 441 3084 563 
Q 2800 747 2484 825 
L 2631 1266 
z
" transform="scale(0.015625)"/>
        <path id="ArialMT-79" d="M 397 -1278 
L 334 -750 
Q 519 -800 656 -800 
Q 844 -800 956 -737 
Q 1069 -675 1141 -563 
Q 1194 -478 1313 -144 
Q 1328 -97 1363 -6 
L 103 3319 
L 709 3319 
L 1400 1397 
Q 1534 1031 1641 628 
Q 1738 1016 1872 1384 
L 2581 3319 
L 3144 3319 
L 1881 -56 
Q 1678 -603 1566 -809 
Q 1416 -1088 1222 -1217 
Q 1028 -1347 759 -1347 
Q 597 -1347 397 -1278 
z
" transform="scale(0.015625)"/>
       </defs>
       <use xlink:href="#ArialMT-42"/>
       <use xlink:href="#ArialMT-69" x="66.699219"/>
       <use xlink:href="#ArialMT-67" x="88.916016"/>
       <use xlink:href="#ArialMT-51" x="144.53125"/>
       <use xlink:href="#ArialMT-75" x="222.314453"/>
       <use xlink:href="#ArialMT-65" x="277.929688"/>
       <use xlink:href="#ArialMT-72" x="333.544922"/>
       <use xlink:href="#ArialMT-79" x="366.845703"/>
      </g>
     </g>
    </g>
    <g id="xtick_4">
     <g id="text_4">
      <!-- APIs.guru -->
      <g style="fill: #262626" transform="translate(540.494766 469.870391) scale(0.165 -0.165)">
       <defs>
        <path id="ArialMT-41" d="M -9 0 
L 1750 4581 
L 2403 4581 
L 4278 0 
L 3588 0 
L 3053 1388 
L 1138 1388 
L 634 0 
L -9 0 
z
M 1313 1881 
L 2866 1881 
L 2388 3150 
Q 2169 3728 2063 4100 
Q 1975 3659 1816 3225 
L 1313 1881 
z
" transform="scale(0.015625)"/>
        <path id="ArialMT-50" d="M 494 0 
L 494 4581 
L 2222 4581 
Q 2678 4581 2919 4538 
Q 3256 4481 3484 4323 
Q 3713 4166 3852 3881 
Q 3991 3597 3991 3256 
Q 3991 2672 3619 2267 
Q 3247 1863 2275 1863 
L 1100 1863 
L 1100 0 
L 494 0 
z
M 1100 2403 
L 2284 2403 
Q 2872 2403 3119 2622 
Q 3366 2841 3366 3238 
Q 3366 3525 3220 3729 
Q 3075 3934 2838 4000 
Q 2684 4041 2272 4041 
L 1100 4041 
L 1100 2403 
z
" transform="scale(0.015625)"/>
        <path id="ArialMT-49" d="M 597 0 
L 597 4581 
L 1203 4581 
L 1203 0 
L 597 0 
z
" transform="scale(0.015625)"/>
        <path id="ArialMT-73" d="M 197 991 
L 753 1078 
Q 800 744 1014 566 
Q 1228 388 1613 388 
Q 2000 388 2187 545 
Q 2375 703 2375 916 
Q 2375 1106 2209 1216 
Q 2094 1291 1634 1406 
Q 1016 1563 777 1677 
Q 538 1791 414 1992 
Q 291 2194 291 2438 
Q 291 2659 392 2848 
Q 494 3038 669 3163 
Q 800 3259 1026 3326 
Q 1253 3394 1513 3394 
Q 1903 3394 2198 3281 
Q 2494 3169 2634 2976 
Q 2775 2784 2828 2463 
L 2278 2388 
Q 2241 2644 2061 2787 
Q 1881 2931 1553 2931 
Q 1166 2931 1000 2803 
Q 834 2675 834 2503 
Q 834 2394 903 2306 
Q 972 2216 1119 2156 
Q 1203 2125 1616 2013 
Q 2213 1853 2448 1751 
Q 2684 1650 2818 1456 
Q 2953 1263 2953 975 
Q 2953 694 2789 445 
Q 2625 197 2315 61 
Q 2006 -75 1616 -75 
Q 969 -75 630 194 
Q 291 463 197 991 
z
" transform="scale(0.015625)"/>
        <path id="ArialMT-2e" d="M 581 0 
L 581 641 
L 1222 641 
L 1222 0 
L 581 0 
z
" transform="scale(0.015625)"/>
       </defs>
       <use xlink:href="#ArialMT-41"/>
       <use xlink:href="#ArialMT-50" x="66.699219"/>
       <use xlink:href="#ArialMT-49" x="133.398438"/>
       <use xlink:href="#ArialMT-73" x="161.181641"/>
       <use xlink:href="#ArialMT-2e" x="211.181641"/>
       <use xlink:href="#ArialMT-67" x="238.964844"/>
       <use xlink:href="#ArialMT-75" x="294.580078"/>
       <use xlink:href="#ArialMT-72" x="350.195312"/>
       <use xlink:href="#ArialMT-75" x="383.496094"/>
      </g>
     </g>
    </g>
    <g id="xtick_5">
     <g id="text_5">
      <!-- Combined -->
      <g style="fill: #262626" transform="translate(673.038047 469.870391) scale(0.165 -0.165)">
       <defs>
        <path id="ArialMT-43" d="M 3763 1606 
L 4369 1453 
Q 4178 706 3683 314 
Q 3188 -78 2472 -78 
Q 1731 -78 1267 223 
Q 803 525 561 1097 
Q 319 1669 319 2325 
Q 319 3041 592 3573 
Q 866 4106 1370 4382 
Q 1875 4659 2481 4659 
Q 3169 4659 3637 4309 
Q 4106 3959 4291 3325 
L 3694 3184 
Q 3534 3684 3231 3912 
Q 2928 4141 2469 4141 
Q 1941 4141 1586 3887 
Q 1231 3634 1087 3207 
Q 944 2781 944 2328 
Q 944 1744 1114 1308 
Q 1284 872 1643 656 
Q 2003 441 2422 441 
Q 2931 441 3284 734 
Q 3638 1028 3763 1606 
z
" transform="scale(0.015625)"/>
        <path id="ArialMT-6f" d="M 213 1659 
Q 213 2581 725 3025 
Q 1153 3394 1769 3394 
Q 2453 3394 2887 2945 
Q 3322 2497 3322 1706 
Q 3322 1066 3130 698 
Q 2938 331 2570 128 
Q 2203 -75 1769 -75 
Q 1072 -75 642 372 
Q 213 819 213 1659 
z
M 791 1659 
Q 791 1022 1069 705 
Q 1347 388 1769 388 
Q 2188 388 2466 706 
Q 2744 1025 2744 1678 
Q 2744 2294 2464 2611 
Q 2184 2928 1769 2928 
Q 1347 2928 1069 2612 
Q 791 2297 791 1659 
z
" transform="scale(0.015625)"/>
        <path id="ArialMT-6d" d="M 422 0 
L 422 3319 
L 925 3319 
L 925 2853 
Q 1081 3097 1340 3245 
Q 1600 3394 1931 3394 
Q 2300 3394 2536 3241 
Q 2772 3088 2869 2813 
Q 3263 3394 3894 3394 
Q 4388 3394 4653 3120 
Q 4919 2847 4919 2278 
L 4919 0 
L 4359 0 
L 4359 2091 
Q 4359 2428 4304 2576 
Q 4250 2725 4106 2815 
Q 3963 2906 3769 2906 
Q 3419 2906 3187 2673 
Q 2956 2441 2956 1928 
L 2956 0 
L 2394 0 
L 2394 2156 
Q 2394 2531 2256 2718 
Q 2119 2906 1806 2906 
Q 1569 2906 1367 2781 
Q 1166 2656 1075 2415 
Q 984 2175 984 1722 
L 984 0 
L 422 0 
z
" transform="scale(0.015625)"/>
        <path id="ArialMT-6e" d="M 422 0 
L 422 3319 
L 928 3319 
L 928 2847 
Q 1294 3394 1984 3394 
Q 2284 3394 2536 3286 
Q 2788 3178 2913 3003 
Q 3038 2828 3088 2588 
Q 3119 2431 3119 2041 
L 3119 0 
L 2556 0 
L 2556 2019 
Q 2556 2363 2490 2533 
Q 2425 2703 2258 2804 
Q 2091 2906 1866 2906 
Q 1506 2906 1245 2678 
Q 984 2450 984 1813 
L 984 0 
L 422 0 
z
" transform="scale(0.015625)"/>
        <path id="ArialMT-64" d="M 2575 0 
L 2575 419 
Q 2259 -75 1647 -75 
Q 1250 -75 917 144 
Q 584 363 401 755 
Q 219 1147 219 1656 
Q 219 2153 384 2558 
Q 550 2963 881 3178 
Q 1213 3394 1622 3394 
Q 1922 3394 2156 3267 
Q 2391 3141 2538 2938 
L 2538 4581 
L 3097 4581 
L 3097 0 
L 2575 0 
z
M 797 1656 
Q 797 1019 1065 703 
Q 1334 388 1700 388 
Q 2069 388 2326 689 
Q 2584 991 2584 1609 
Q 2584 2291 2321 2609 
Q 2059 2928 1675 2928 
Q 1300 2928 1048 2622 
Q 797 2316 797 1656 
z
" transform="scale(0.015625)"/>
       </defs>
       <use xlink:href="#ArialMT-43"/>
       <use xlink:href="#ArialMT-6f" x="72.216797"/>
       <use xlink:href="#ArialMT-6d" x="127.832031"/>
       <use xlink:href="#ArialMT-62" x="211.132812"/>
       <use xlink:href="#ArialMT-69" x="266.748047"/>
       <use xlink:href="#ArialMT-6e" x="288.964844"/>
       <use xlink:href="#ArialMT-65" x="344.580078"/>
       <use xlink:href="#ArialMT-64" x="400.195312"/>
      </g>
     </g>
    </g>
    <g id="text_6">
     <!-- Datasets -->
     <g style="fill: #262626" transform="translate(407.285156 490.438594) scale(0.18 -0.18)">
      <defs>
       <path id="ArialMT-44" d="M 494 0 
L 494 4581 
L 2072 4581 
Q 2606 4581 2888 4516 
Q 3281 4425 3559 4188 
Q 3922 3881 4101 3404 
Q 4281 2928 4281 2316 
Q 4281 1794 4159 1391 
Q 4038 988 3847 723 
Q 3656 459 3429 307 
Q 3203 156 2883 78 
Q 2563 0 2147 0 
L 494 0 
z
M 1100 541 
L 2078 541 
Q 2531 541 2789 625 
Q 3047 709 3200 863 
Q 3416 1078 3536 1442 
Q 3656 1806 3656 2325 
Q 3656 3044 3420 3430 
Q 3184 3816 2847 3947 
Q 2603 4041 2063 4041 
L 1100 4041 
L 1100 541 
z
" transform="scale(0.015625)"/>
      </defs>
      <use xlink:href="#ArialMT-44"/>
      <use xlink:href="#ArialMT-61" x="72.216797"/>
      <use xlink:href="#ArialMT-74" x="127.832031"/>
      <use xlink:href="#ArialMT-61" x="155.615234"/>
      <use xlink:href="#ArialMT-73" x="211.230469"/>
      <use xlink:href="#ArialMT-65" x="261.230469"/>
      <use xlink:href="#ArialMT-74" x="316.845703"/>
      <use xlink:href="#ArialMT-73" x="344.628906"/>
     </g>
    </g>
   </g>
   <g id="matplotlib.axis_2">
    <g id="ytick_1">
     <g id="line2d_1">
      <path d="M 108 436.075831 
L 777.6 436.075831 
" clip-path="url(#pbac9bd9449)" style="fill: none; stroke-dasharray: 3.7,1.6; stroke-dashoffset: 0; stroke: #ffffff"/>
     </g>
     <g id="text_7">
      <!-- −0.2 -->
      <g style="fill: #262626" transform="translate(65.927969 441.981027) scale(0.165 -0.165)">
       <defs>
        <path id="ArialMT-2212" d="M 3381 1997 
L 356 1997 
L 356 2522 
L 3381 2522 
L 3381 1997 
z
" transform="scale(0.015625)"/>
        <path id="ArialMT-30" d="M 266 2259 
Q 266 3072 433 3567 
Q 600 4063 929 4331 
Q 1259 4600 1759 4600 
Q 2128 4600 2406 4451 
Q 2684 4303 2865 4023 
Q 3047 3744 3150 3342 
Q 3253 2941 3253 2259 
Q 3253 1453 3087 958 
Q 2922 463 2592 192 
Q 2263 -78 1759 -78 
Q 1097 -78 719 397 
Q 266 969 266 2259 
z
M 844 2259 
Q 844 1131 1108 757 
Q 1372 384 1759 384 
Q 2147 384 2411 759 
Q 2675 1134 2675 2259 
Q 2675 3391 2411 3762 
Q 2147 4134 1753 4134 
Q 1366 4134 1134 3806 
Q 844 3388 844 2259 
z
" transform="scale(0.015625)"/>
        <path id="ArialMT-32" d="M 3222 541 
L 3222 0 
L 194 0 
Q 188 203 259 391 
Q 375 700 629 1000 
Q 884 1300 1366 1694 
Q 2113 2306 2375 2664 
Q 2638 3022 2638 3341 
Q 2638 3675 2398 3904 
Q 2159 4134 1775 4134 
Q 1369 4134 1125 3890 
Q 881 3647 878 3216 
L 300 3275 
Q 359 3922 746 4261 
Q 1134 4600 1788 4600 
Q 2447 4600 2831 4234 
Q 3216 3869 3216 3328 
Q 3216 3053 3103 2787 
Q 2991 2522 2730 2228 
Q 2469 1934 1863 1422 
Q 1356 997 1212 845 
Q 1069 694 975 541 
L 3222 541 
z
" transform="scale(0.015625)"/>
       </defs>
       <use xlink:href="#ArialMT-2212"/>
       <use xlink:href="#ArialMT-30" x="58.398438"/>
       <use xlink:href="#ArialMT-2e" x="114.013672"/>
       <use xlink:href="#ArialMT-32" x="141.796875"/>
      </g>
     </g>
    </g>
    <g id="ytick_2">
     <g id="line2d_2">
      <path d="M 108 384.202737 
L 777.6 384.202737 
" clip-path="url(#pbac9bd9449)" style="fill: none; stroke-dasharray: 3.7,1.6; stroke-dashoffset: 0; stroke: #ffffff"/>
     </g>
     <g id="text_8">
      <!-- 0.0 -->
      <g style="fill: #262626" transform="translate(75.565 390.107932) scale(0.165 -0.165)">
       <use xlink:href="#ArialMT-30"/>
       <use xlink:href="#ArialMT-2e" x="55.615234"/>
       <use xlink:href="#ArialMT-30" x="83.398438"/>
      </g>
     </g>
    </g>
    <g id="ytick_3">
     <g id="line2d_3">
      <path d="M 108 332.329642 
L 777.6 332.329642 
" clip-path="url(#pbac9bd9449)" style="fill: none; stroke-dasharray: 3.7,1.6; stroke-dashoffset: 0; stroke: #ffffff"/>
     </g>
     <g id="text_9">
      <!-- 0.2 -->
      <g style="fill: #262626" transform="translate(75.565 338.234837) scale(0.165 -0.165)">
       <use xlink:href="#ArialMT-30"/>
       <use xlink:href="#ArialMT-2e" x="55.615234"/>
       <use xlink:href="#ArialMT-32" x="83.398438"/>
      </g>
     </g>
    </g>
    <g id="ytick_4">
     <g id="line2d_4">
      <path d="M 108 280.456547 
L 777.6 280.456547 
" clip-path="url(#pbac9bd9449)" style="fill: none; stroke-dasharray: 3.7,1.6; stroke-dashoffset: 0; stroke: #ffffff"/>
     </g>
     <g id="text_10">
      <!-- 0.4 -->
      <g style="fill: #262626" transform="translate(75.565 286.361743) scale(0.165 -0.165)">
       <defs>
        <path id="ArialMT-34" d="M 2069 0 
L 2069 1097 
L 81 1097 
L 81 1613 
L 2172 4581 
L 2631 4581 
L 2631 1613 
L 3250 1613 
L 3250 1097 
L 2631 1097 
L 2631 0 
L 2069 0 
z
M 2069 1613 
L 2069 3678 
L 634 1613 
L 2069 1613 
z
" transform="scale(0.015625)"/>
       </defs>
       <use xlink:href="#ArialMT-30"/>
       <use xlink:href="#ArialMT-2e" x="55.615234"/>
       <use xlink:href="#ArialMT-34" x="83.398438"/>
      </g>
     </g>
    </g>
    <g id="ytick_5">
     <g id="line2d_5">
      <path d="M 108 228.583453 
L 777.6 228.583453 
" clip-path="url(#pbac9bd9449)" style="fill: none; stroke-dasharray: 3.7,1.6; stroke-dashoffset: 0; stroke: #ffffff"/>
     </g>
     <g id="text_11">
      <!-- 0.6 -->
      <g style="fill: #262626" transform="translate(75.565 234.488648) scale(0.165 -0.165)">
       <defs>
        <path id="ArialMT-36" d="M 3184 3459 
L 2625 3416 
Q 2550 3747 2413 3897 
Q 2184 4138 1850 4138 
Q 1581 4138 1378 3988 
Q 1113 3794 959 3422 
Q 806 3050 800 2363 
Q 1003 2672 1297 2822 
Q 1591 2972 1913 2972 
Q 2475 2972 2870 2558 
Q 3266 2144 3266 1488 
Q 3266 1056 3080 686 
Q 2894 316 2569 119 
Q 2244 -78 1831 -78 
Q 1128 -78 684 439 
Q 241 956 241 2144 
Q 241 3472 731 4075 
Q 1159 4600 1884 4600 
Q 2425 4600 2770 4297 
Q 3116 3994 3184 3459 
z
M 888 1484 
Q 888 1194 1011 928 
Q 1134 663 1356 523 
Q 1578 384 1822 384 
Q 2178 384 2434 671 
Q 2691 959 2691 1453 
Q 2691 1928 2437 2201 
Q 2184 2475 1800 2475 
Q 1419 2475 1153 2201 
Q 888 1928 888 1484 
z
" transform="scale(0.015625)"/>
       </defs>
       <use xlink:href="#ArialMT-30"/>
       <use xlink:href="#ArialMT-2e" x="55.615234"/>
       <use xlink:href="#ArialMT-36" x="83.398438"/>
      </g>
     </g>
    </g>
    <g id="ytick_6">
     <g id="line2d_6">
      <path d="M 108 176.710358 
L 777.6 176.710358 
" clip-path="url(#pbac9bd9449)" style="fill: none; stroke-dasharray: 3.7,1.6; stroke-dashoffset: 0; stroke: #ffffff"/>
     </g>
     <g id="text_12">
      <!-- 0.8 -->
      <g style="fill: #262626" transform="translate(75.565 182.615553) scale(0.165 -0.165)">
       <defs>
        <path id="ArialMT-38" d="M 1131 2484 
Q 781 2613 612 2850 
Q 444 3088 444 3419 
Q 444 3919 803 4259 
Q 1163 4600 1759 4600 
Q 2359 4600 2725 4251 
Q 3091 3903 3091 3403 
Q 3091 3084 2923 2848 
Q 2756 2613 2416 2484 
Q 2838 2347 3058 2040 
Q 3278 1734 3278 1309 
Q 3278 722 2862 322 
Q 2447 -78 1769 -78 
Q 1091 -78 675 323 
Q 259 725 259 1325 
Q 259 1772 486 2073 
Q 713 2375 1131 2484 
z
M 1019 3438 
Q 1019 3113 1228 2906 
Q 1438 2700 1772 2700 
Q 2097 2700 2305 2904 
Q 2513 3109 2513 3406 
Q 2513 3716 2298 3927 
Q 2084 4138 1766 4138 
Q 1444 4138 1231 3931 
Q 1019 3725 1019 3438 
z
M 838 1322 
Q 838 1081 952 856 
Q 1066 631 1291 507 
Q 1516 384 1775 384 
Q 2178 384 2440 643 
Q 2703 903 2703 1303 
Q 2703 1709 2433 1975 
Q 2163 2241 1756 2241 
Q 1359 2241 1098 1978 
Q 838 1716 838 1322 
z
" transform="scale(0.015625)"/>
       </defs>
       <use xlink:href="#ArialMT-30"/>
       <use xlink:href="#ArialMT-2e" x="55.615234"/>
       <use xlink:href="#ArialMT-38" x="83.398438"/>
      </g>
     </g>
    </g>
    <g id="ytick_7">
     <g id="line2d_7">
      <path d="M 108 124.837263 
L 777.6 124.837263 
" clip-path="url(#pbac9bd9449)" style="fill: none; stroke-dasharray: 3.7,1.6; stroke-dashoffset: 0; stroke: #ffffff"/>
     </g>
     <g id="text_13">
      <!-- 1.0 -->
      <g style="fill: #262626" transform="translate(75.565 130.742459) scale(0.165 -0.165)">
       <defs>
        <path id="ArialMT-31" d="M 2384 0 
L 1822 0 
L 1822 3584 
Q 1619 3391 1289 3197 
Q 959 3003 697 2906 
L 697 3450 
Q 1169 3672 1522 3987 
Q 1875 4303 2022 4600 
L 2384 4600 
L 2384 0 
z
" transform="scale(0.015625)"/>
       </defs>
       <use xlink:href="#ArialMT-31"/>
       <use xlink:href="#ArialMT-2e" x="55.615234"/>
       <use xlink:href="#ArialMT-30" x="83.398438"/>
      </g>
     </g>
    </g>
    <g id="ytick_8">
     <g id="line2d_8">
      <path d="M 108 72.964169 
L 777.6 72.964169 
" clip-path="url(#pbac9bd9449)" style="fill: none; stroke-dasharray: 3.7,1.6; stroke-dashoffset: 0; stroke: #ffffff"/>
     </g>
     <g id="text_14">
      <!-- 1.2 -->
      <g style="fill: #262626" transform="translate(75.565 78.869364) scale(0.165 -0.165)">
       <use xlink:href="#ArialMT-31"/>
       <use xlink:href="#ArialMT-2e" x="55.615234"/>
       <use xlink:href="#ArialMT-32" x="83.398438"/>
      </g>
     </g>
    </g>
    <g id="text_15">
     <!-- Average Secured Endpoints -->
     <g style="fill: #262626" transform="translate(58.139531 366.429375) rotate(-90) scale(0.18 -0.18)">
      <defs>
       <path id="ArialMT-76" d="M 1344 0 
L 81 3319 
L 675 3319 
L 1388 1331 
Q 1503 1009 1600 663 
Q 1675 925 1809 1294 
L 2547 3319 
L 3125 3319 
L 1869 0 
L 1344 0 
z
" transform="scale(0.015625)"/>
       <path id="ArialMT-20" transform="scale(0.015625)"/>
       <path id="ArialMT-63" d="M 2588 1216 
L 3141 1144 
Q 3050 572 2676 248 
Q 2303 -75 1759 -75 
Q 1078 -75 664 370 
Q 250 816 250 1647 
Q 250 2184 428 2587 
Q 606 2991 970 3192 
Q 1334 3394 1763 3394 
Q 2303 3394 2647 3120 
Q 2991 2847 3088 2344 
L 2541 2259 
Q 2463 2594 2264 2762 
Q 2066 2931 1784 2931 
Q 1359 2931 1093 2626 
Q 828 2322 828 1663 
Q 828 994 1084 691 
Q 1341 388 1753 388 
Q 2084 388 2306 591 
Q 2528 794 2588 1216 
z
" transform="scale(0.015625)"/>
       <path id="ArialMT-45" d="M 506 0 
L 506 4581 
L 3819 4581 
L 3819 4041 
L 1113 4041 
L 1113 2638 
L 3647 2638 
L 3647 2100 
L 1113 2100 
L 1113 541 
L 3925 541 
L 3925 0 
L 506 0 
z
" transform="scale(0.015625)"/>
       <path id="ArialMT-70" d="M 422 -1272 
L 422 3319 
L 934 3319 
L 934 2888 
Q 1116 3141 1344 3267 
Q 1572 3394 1897 3394 
Q 2322 3394 2647 3175 
Q 2972 2956 3137 2557 
Q 3303 2159 3303 1684 
Q 3303 1175 3120 767 
Q 2938 359 2589 142 
Q 2241 -75 1856 -75 
Q 1575 -75 1351 44 
Q 1128 163 984 344 
L 984 -1272 
L 422 -1272 
z
M 931 1641 
Q 931 1000 1190 694 
Q 1450 388 1819 388 
Q 2194 388 2461 705 
Q 2728 1022 2728 1688 
Q 2728 2322 2467 2637 
Q 2206 2953 1844 2953 
Q 1484 2953 1207 2617 
Q 931 2281 931 1641 
z
" transform="scale(0.015625)"/>
      </defs>
      <use xlink:href="#ArialMT-41"/>
      <use xlink:href="#ArialMT-76" x="64.949219"/>
      <use xlink:href="#ArialMT-65" x="114.949219"/>
      <use xlink:href="#ArialMT-72" x="170.564453"/>
      <use xlink:href="#ArialMT-61" x="203.865234"/>
      <use xlink:href="#ArialMT-67" x="259.480469"/>
      <use xlink:href="#ArialMT-65" x="315.095703"/>
      <use xlink:href="#ArialMT-20" x="370.710938"/>
      <use xlink:href="#ArialMT-53" x="398.494141"/>
      <use xlink:href="#ArialMT-65" x="465.193359"/>
      <use xlink:href="#ArialMT-63" x="520.808594"/>
      <use xlink:href="#ArialMT-75" x="570.808594"/>
      <use xlink:href="#ArialMT-72" x="626.423828"/>
      <use xlink:href="#ArialMT-65" x="659.724609"/>
      <use xlink:href="#ArialMT-64" x="715.339844"/>
      <use xlink:href="#ArialMT-20" x="770.955078"/>
      <use xlink:href="#ArialMT-45" x="798.738281"/>
      <use xlink:href="#ArialMT-6e" x="865.4375"/>
      <use xlink:href="#ArialMT-64" x="921.052734"/>
      <use xlink:href="#ArialMT-70" x="976.667969"/>
      <use xlink:href="#ArialMT-6f" x="1032.283203"/>
      <use xlink:href="#ArialMT-69" x="1087.898438"/>
      <use xlink:href="#ArialMT-6e" x="1110.115234"/>
      <use xlink:href="#ArialMT-74" x="1165.730469"/>
      <use xlink:href="#ArialMT-73" x="1193.513672"/>
     </g>
    </g>
   </g>
   <g id="PolyCollection_1">
    <defs>
     <path id="m98f56152ac" d="M 178.410522 -87.328808 
L 171.509478 -87.328808 
L 169.898002 -90.60459 
L 167.830148 -93.880372 
L 165.31812 -97.156153 
L 162.44106 -100.431935 
L 159.353674 -103.707717 
L 156.280523 -106.983498 
L 153.493325 -110.25928 
L 151.273117 -113.535062 
L 149.864032 -116.810843 
L 149.429062 -120.086625 
L 150.018886 -123.362407 
L 151.561991 -126.638188 
L 153.878788 -129.91397 
L 156.715872 -133.189752 
L 159.791413 -136.465533 
L 162.840475 -139.741315 
L 165.650381 -143.017096 
L 168.080226 -146.292878 
L 170.063622 -149.56866 
L 171.598009 -152.844441 
L 172.726232 -156.120223 
L 173.516307 -159.396005 
L 174.043909 -162.671786 
L 174.380003 -165.947568 
L 174.584015 -169.22335 
L 174.701592 -172.499131 
L 174.765395 -175.774913 
L 174.797419 -179.050695 
L 174.811695 -182.326476 
L 174.81671 -185.602258 
L 174.817291 -188.87804 
L 174.81592 -192.153821 
L 174.813599 -195.429603 
L 174.810398 -198.705384 
L 174.805813 -201.981166 
L 174.799033 -205.256948 
L 174.789172 -208.532729 
L 174.775514 -211.808511 
L 174.757761 -215.084293 
L 174.736255 -218.360074 
L 174.712107 -221.635856 
L 174.6872 -224.911638 
L 174.663994 -228.187419 
L 174.645178 -231.463201 
L 174.633206 -234.738983 
L 174.62984 -238.014764 
L 174.63579 -241.290546 
L 174.65057 -244.566328 
L 174.672572 -247.842109 
L 174.699357 -251.117891 
L 174.728083 -254.393672 
L 174.755954 -257.669454 
L 174.780616 -260.945236 
L 174.800421 -264.221017 
L 174.81454 -267.496799 
L 174.822924 -270.772581 
L 174.826172 -274.048362 
L 174.825323 -277.324144 
L 174.821629 -280.599926 
L 174.816346 -283.875707 
L 174.810553 -287.151489 
L 174.805037 -290.427271 
L 174.800239 -293.703052 
L 174.796262 -296.978834 
L 174.792914 -300.254616 
L 174.789748 -303.530397 
L 174.785997 -306.806179 
L 174.780317 -310.08196 
L 174.770153 -313.357742 
L 174.750522 -316.633524 
L 174.711975 -319.909305 
L 174.637463 -323.185087 
L 174.49798 -326.460869 
L 174.247107 -329.73665 
L 173.815146 -333.012432 
L 173.104347 -336.288214 
L 171.987638 -339.563995 
L 170.313996 -342.839777 
L 167.923552 -346.115559 
L 164.674221 -349.39134 
L 160.478742 -352.667122 
L 155.346909 -355.942904 
L 149.423457 -359.218685 
L 143.009296 -362.494467 
L 136.554464 -365.770248 
L 130.616166 -369.04603 
L 125.784126 -372.321812 
L 122.585786 -375.597593 
L 121.392 -378.873375 
L 122.346464 -382.149157 
L 125.337415 -385.424938 
L 130.019318 -388.70072 
L 135.878698 -391.976502 
L 142.326787 -395.252283 
L 148.795906 -398.528065 
L 154.818059 -401.803847 
L 160.071801 -405.079628 
L 164.393663 -408.35541 
L 167.759794 -411.631192 
L 182.160206 -411.631192 
L 182.160206 -411.631192 
L 185.526337 -408.35541 
L 189.848199 -405.079628 
L 195.101941 -401.803847 
L 201.124094 -398.528065 
L 207.593213 -395.252283 
L 214.041302 -391.976502 
L 219.900682 -388.70072 
L 224.582585 -385.424938 
L 227.573536 -382.149157 
L 228.528 -378.873375 
L 227.334214 -375.597593 
L 224.135874 -372.321812 
L 219.303834 -369.04603 
L 213.365536 -365.770248 
L 206.910704 -362.494467 
L 200.496543 -359.218685 
L 194.573091 -355.942904 
L 189.441258 -352.667122 
L 185.245779 -349.39134 
L 181.996448 -346.115559 
L 179.606004 -342.839777 
L 177.932362 -339.563995 
L 176.815653 -336.288214 
L 176.104854 -333.012432 
L 175.672893 -329.73665 
L 175.42202 -326.460869 
L 175.282537 -323.185087 
L 175.208025 -319.909305 
L 175.169478 -316.633524 
L 175.149847 -313.357742 
L 175.139683 -310.08196 
L 175.134003 -306.806179 
L 175.130252 -303.530397 
L 175.127086 -300.254616 
L 175.123738 -296.978834 
L 175.119761 -293.703052 
L 175.114963 -290.427271 
L 175.109447 -287.151489 
L 175.103654 -283.875707 
L 175.098371 -280.599926 
L 175.094677 -277.324144 
L 175.093828 -274.048362 
L 175.097076 -270.772581 
L 175.10546 -267.496799 
L 175.119579 -264.221017 
L 175.139384 -260.945236 
L 175.164046 -257.669454 
L 175.191917 -254.393672 
L 175.220643 -251.117891 
L 175.247428 -247.842109 
L 175.26943 -244.566328 
L 175.28421 -241.290546 
L 175.29016 -238.014764 
L 175.286794 -234.738983 
L 175.274822 -231.463201 
L 175.256006 -228.187419 
L 175.2328 -224.911638 
L 175.207893 -221.635856 
L 175.183745 -218.360074 
L 175.162239 -215.084293 
L 175.144486 -211.808511 
L 175.130828 -208.532729 
L 175.120967 -205.256948 
L 175.114187 -201.981166 
L 175.109602 -198.705384 
L 175.106401 -195.429603 
L 175.10408 -192.153821 
L 175.102709 -188.87804 
L 175.10329 -185.602258 
L 175.108305 -182.326476 
L 175.122581 -179.050695 
L 175.154605 -175.774913 
L 175.218408 -172.499131 
L 175.335985 -169.22335 
L 175.539997 -165.947568 
L 175.876091 -162.671786 
L 176.403693 -159.396005 
L 177.193768 -156.120223 
L 178.321991 -152.844441 
L 179.856378 -149.56866 
L 181.839774 -146.292878 
L 184.269619 -143.017096 
L 187.079525 -139.741315 
L 190.128587 -136.465533 
L 193.204128 -133.189752 
L 196.041212 -129.91397 
L 198.358009 -126.638188 
L 199.901114 -123.362407 
L 200.490938 -120.086625 
L 200.055968 -116.810843 
L 198.646883 -113.535062 
L 196.426675 -110.25928 
L 193.639477 -106.983498 
L 190.566326 -103.707717 
L 187.47894 -100.431935 
L 184.60188 -97.156153 
L 182.089852 -93.880372 
L 180.021998 -90.60459 
L 178.410522 -87.328808 
z
" style="stroke: #4c4c4c; stroke-width: 1.25"/>
    </defs>
    <g clip-path="url(#pbac9bd9449)">
     <use xlink:href="#m98f56152ac" x="0" y="504" style="fill: #5875a4; stroke: #4c4c4c; stroke-width: 1.25"/>
    </g>
   </g>
   <g id="PolyCollection_2">
    <defs>
     <path id="m6a8b824f8d" d="M 316.301018 -113.643654 
L 301.458982 -113.643654 
L 279.203223 -116.387823 
L 255.312 -119.131991 
L 265.234946 -121.87616 
L 292.827665 -124.620329 
L 306.212916 -127.364497 
L 308.677188 -130.108666 
L 308.870151 -132.852834 
L 308.877453 -135.597003 
L 308.87809 -138.341172 
L 308.877939 -141.08534 
L 308.87747 -143.829509 
L 308.877292 -146.573677 
L 308.877301 -149.317846 
L 308.877076 -152.062015 
L 308.876701 -154.806183 
L 308.876407 -157.550352 
L 308.876307 -160.29452 
L 308.876308 -163.038689 
L 308.876559 -165.782858 
L 308.876606 -168.527026 
L 308.876421 -171.271195 
L 308.877 -174.015363 
L 308.877997 -176.759532 
L 308.878055 -179.503701 
L 308.8767 -182.247869 
L 308.875737 -184.992038 
L 308.876787 -187.736206 
L 308.878047 -190.480375 
L 308.878481 -193.224544 
L 308.878547 -195.968712 
L 308.878246 -198.712881 
L 308.87696 -201.457049 
L 308.874256 -204.201218 
L 308.872741 -206.945387 
L 308.874114 -209.689555 
L 308.875595 -212.433724 
L 308.875802 -215.177892 
L 308.875032 -217.922061 
L 308.873405 -220.66623 
L 308.871666 -223.410398 
L 308.869686 -226.154567 
L 308.85678 -228.898735 
L 308.791646 -231.642904 
L 308.656608 -234.387073 
L 308.606024 -237.131241 
L 308.723719 -239.87541 
L 308.834615 -242.619578 
L 308.866289 -245.363747 
L 308.867205 -248.107916 
L 308.868145 -250.852084 
L 308.87325 -253.596253 
L 308.876394 -256.340422 
L 308.877328 -259.08459 
L 308.87735 -261.828759 
L 308.876991 -264.572927 
L 308.876859 -267.317096 
L 308.876598 -270.061265 
L 308.875191 -272.805433 
L 308.873426 -275.549602 
L 308.873646 -278.29377 
L 308.875245 -281.037939 
L 308.876509 -283.782108 
L 308.876818 -286.526276 
L 308.875384 -289.270445 
L 308.873486 -292.014613 
L 308.8743 -294.758782 
L 308.876184 -297.502951 
L 308.876578 -300.247119 
L 308.876549 -302.991288 
L 308.877016 -305.735456 
L 308.877378 -308.479625 
L 308.876364 -311.223794 
L 308.874829 -313.967962 
L 308.874794 -316.712131 
L 308.875415 -319.456299 
L 308.875976 -322.200468 
L 308.876426 -324.944637 
L 308.876552 -327.688805 
L 308.876414 -330.432974 
L 308.875815 -333.177142 
L 308.875358 -335.921311 
L 308.875648 -338.66548 
L 308.875872 -341.409648 
L 308.875803 -344.153817 
L 308.875641 -346.897985 
L 308.875606 -349.642154 
L 308.875416 -352.386323 
L 308.874909 -355.130491 
L 308.874511 -357.87466 
L 308.874143 -360.618828 
L 308.873252 -363.362997 
L 308.871052 -366.107166 
L 308.863835 -368.851334 
L 308.805189 -371.595503 
L 308.503039 -374.339671 
L 307.886818 -377.08384 
L 307.670459 -379.828009 
L 308.211632 -382.572177 
L 308.713045 -385.316346 
L 309.046955 -385.316346 
L 309.046955 -385.316346 
L 309.548368 -382.572177 
L 310.089541 -379.828009 
L 309.873182 -377.08384 
L 309.256961 -374.339671 
L 308.954811 -371.595503 
L 308.896165 -368.851334 
L 308.888948 -366.107166 
L 308.886748 -363.362997 
L 308.885857 -360.618828 
L 308.885489 -357.87466 
L 308.885091 -355.130491 
L 308.884584 -352.386323 
L 308.884394 -349.642154 
L 308.884359 -346.897985 
L 308.884197 -344.153817 
L 308.884128 -341.409648 
L 308.884352 -338.66548 
L 308.884642 -335.921311 
L 308.884185 -333.177142 
L 308.883586 -330.432974 
L 308.883448 -327.688805 
L 308.883574 -324.944637 
L 308.884024 -322.200468 
L 308.884585 -319.456299 
L 308.885206 -316.712131 
L 308.885171 -313.967962 
L 308.883636 -311.223794 
L 308.882622 -308.479625 
L 308.882984 -305.735456 
L 308.883451 -302.991288 
L 308.883422 -300.247119 
L 308.883816 -297.502951 
L 308.8857 -294.758782 
L 308.886514 -292.014613 
L 308.884616 -289.270445 
L 308.883182 -286.526276 
L 308.883491 -283.782108 
L 308.884755 -281.037939 
L 308.886354 -278.29377 
L 308.886574 -275.549602 
L 308.884809 -272.805433 
L 308.883402 -270.061265 
L 308.883141 -267.317096 
L 308.883009 -264.572927 
L 308.88265 -261.828759 
L 308.882672 -259.08459 
L 308.883606 -256.340422 
L 308.88675 -253.596253 
L 308.891855 -250.852084 
L 308.892795 -248.107916 
L 308.893711 -245.363747 
L 308.925385 -242.619578 
L 309.036281 -239.87541 
L 309.153976 -237.131241 
L 309.103392 -234.387073 
L 308.968354 -231.642904 
L 308.90322 -228.898735 
L 308.890314 -226.154567 
L 308.888334 -223.410398 
L 308.886595 -220.66623 
L 308.884968 -217.922061 
L 308.884198 -215.177892 
L 308.884405 -212.433724 
L 308.885886 -209.689555 
L 308.887259 -206.945387 
L 308.885744 -204.201218 
L 308.88304 -201.457049 
L 308.881754 -198.712881 
L 308.881453 -195.968712 
L 308.881519 -193.224544 
L 308.881953 -190.480375 
L 308.883213 -187.736206 
L 308.884263 -184.992038 
L 308.8833 -182.247869 
L 308.881945 -179.503701 
L 308.882003 -176.759532 
L 308.883 -174.015363 
L 308.883579 -171.271195 
L 308.883394 -168.527026 
L 308.883441 -165.782858 
L 308.883692 -163.038689 
L 308.883693 -160.29452 
L 308.883593 -157.550352 
L 308.883299 -154.806183 
L 308.882924 -152.062015 
L 308.882699 -149.317846 
L 308.882708 -146.573677 
L 308.88253 -143.829509 
L 308.882061 -141.08534 
L 308.88191 -138.341172 
L 308.882547 -135.597003 
L 308.889849 -132.852834 
L 309.082812 -130.108666 
L 311.547084 -127.364497 
L 324.932335 -124.620329 
L 352.525054 -121.87616 
L 362.448 -119.131991 
L 338.556777 -116.387823 
L 316.301018 -113.643654 
z
" style="stroke: #4c4c4c; stroke-width: 1.25"/>
    </defs>
    <g clip-path="url(#pbac9bd9449)">
     <use xlink:href="#m6a8b824f8d" x="0" y="504" style="fill: #cc8963; stroke: #4c4c4c; stroke-width: 1.25"/>
    </g>
   </g>
   <g id="PolyCollection_3">
    <defs>
     <path id="ma900298b8d" d="M 449.816975 -74.844881 
L 435.783025 -74.844881 
L 433.312067 -78.372864 
L 430.28309 -81.900846 
L 426.688831 -85.428828 
L 422.566918 -88.95681 
L 418.008495 -92.484792 
L 413.161888 -96.012775 
L 408.229468 -99.540757 
L 403.456699 -103.068739 
L 399.113598 -106.596721 
L 395.470225 -110.124703 
L 392.769182 -113.652686 
L 391.198934 -117.180668 
L 390.872028 -120.70865 
L 391.81171 -124.236632 
L 393.949132 -127.764614 
L 397.131624 -131.292597 
L 401.140649 -134.820579 
L 405.716491 -138.348561 
L 410.585816 -141.876543 
L 415.488058 -145.404525 
L 420.197176 -148.932507 
L 424.536463 -152.46049 
L 428.385502 -155.988472 
L 431.679708 -159.516454 
L 434.403926 -163.044436 
L 436.582183 -166.572418 
L 438.265754 -170.100401 
L 439.521473 -173.628383 
L 440.42168 -177.156365 
L 441.036574 -180.684347 
L 441.429198 -184.212329 
L 441.652859 -187.740312 
L 441.750495 -191.268294 
L 441.755429 -194.796276 
L 441.692934 -198.324258 
L 441.58214 -201.85224 
L 441.437913 -205.380223 
L 441.272463 -208.908205 
L 441.096531 -212.436187 
L 440.920107 -215.964169 
L 440.752689 -219.492151 
L 440.603143 -223.020134 
L 440.479289 -226.548116 
L 440.387344 -230.076098 
L 440.331379 -233.60408 
L 440.312933 -237.132062 
L 440.33088 -240.660045 
L 440.381618 -244.188027 
L 440.459563 -247.716009 
L 440.557883 -251.243991 
L 440.669347 -254.771973 
L 440.78716 -258.299955 
L 440.905654 -261.827938 
L 441.020715 -265.35592 
L 441.129924 -268.883902 
L 441.23239 -272.411884 
L 441.328352 -275.939866 
L 441.418612 -279.467849 
L 441.503897 -282.995831 
L 441.584222 -286.523813 
L 441.658265 -290.051795 
L 441.722764 -293.579777 
L 441.771852 -297.10776 
L 441.796259 -300.635742 
L 441.782297 -304.163724 
L 441.710583 -307.691706 
L 441.554546 -311.219688 
L 441.278876 -314.747671 
L 440.838234 -318.275653 
L 440.176687 -321.803635 
L 439.228442 -325.331617 
L 437.920511 -328.859599 
L 436.17781 -332.387582 
L 433.930954 -335.915564 
L 431.126547 -339.443546 
L 427.739182 -342.971528 
L 423.783722 -346.49951 
L 419.325897 -350.027493 
L 414.488941 -353.555475 
L 409.454122 -357.083457 
L 404.45363 -360.611439 
L 399.755351 -364.139421 
L 395.640465 -367.667403 
L 392.376258 -371.195386 
L 390.187704 -374.723368 
L 389.232 -378.25135 
L 389.580042 -381.779332 
L 391.207878 -385.307314 
L 393.999565 -388.835297 
L 397.760963 -392.363279 
L 402.242162 -395.891261 
L 407.164977 -399.419243 
L 412.251286 -402.947225 
L 417.248279 -406.475208 
L 421.947559 -410.00319 
L 426.196421 -413.531172 
L 429.90108 -417.059154 
L 433.022881 -420.587136 
L 435.569414 -424.115119 
L 450.030586 -424.115119 
L 450.030586 -424.115119 
L 452.577119 -420.587136 
L 455.69892 -417.059154 
L 459.403579 -413.531172 
L 463.652441 -410.00319 
L 468.351721 -406.475208 
L 473.348714 -402.947225 
L 478.435023 -399.419243 
L 483.357838 -395.891261 
L 487.839037 -392.363279 
L 491.600435 -388.835297 
L 494.392122 -385.307314 
L 496.019958 -381.779332 
L 496.368 -378.25135 
L 495.412296 -374.723368 
L 493.223742 -371.195386 
L 489.959535 -367.667403 
L 485.844649 -364.139421 
L 481.14637 -360.611439 
L 476.145878 -357.083457 
L 471.111059 -353.555475 
L 466.274103 -350.027493 
L 461.816278 -346.49951 
L 457.860818 -342.971528 
L 454.473453 -339.443546 
L 451.669046 -335.915564 
L 449.42219 -332.387582 
L 447.679489 -328.859599 
L 446.371558 -325.331617 
L 445.423313 -321.803635 
L 444.761766 -318.275653 
L 444.321124 -314.747671 
L 444.045454 -311.219688 
L 443.889417 -307.691706 
L 443.817703 -304.163724 
L 443.803741 -300.635742 
L 443.828148 -297.10776 
L 443.877236 -293.579777 
L 443.941735 -290.051795 
L 444.015778 -286.523813 
L 444.096103 -282.995831 
L 444.181388 -279.467849 
L 444.271648 -275.939866 
L 444.36761 -272.411884 
L 444.470076 -268.883902 
L 444.579285 -265.35592 
L 444.694346 -261.827938 
L 444.81284 -258.299955 
L 444.930653 -254.771973 
L 445.042117 -251.243991 
L 445.140437 -247.716009 
L 445.218382 -244.188027 
L 445.26912 -240.660045 
L 445.287067 -237.132062 
L 445.268621 -233.60408 
L 445.212656 -230.076098 
L 445.120711 -226.548116 
L 444.996857 -223.020134 
L 444.847311 -219.492151 
L 444.679893 -215.964169 
L 444.503469 -212.436187 
L 444.327537 -208.908205 
L 444.162087 -205.380223 
L 444.01786 -201.85224 
L 443.907066 -198.324258 
L 443.844571 -194.796276 
L 443.849505 -191.268294 
L 443.947141 -187.740312 
L 444.170802 -184.212329 
L 444.563426 -180.684347 
L 445.17832 -177.156365 
L 446.078527 -173.628383 
L 447.334246 -170.100401 
L 449.017817 -166.572418 
L 451.196074 -163.044436 
L 453.920292 -159.516454 
L 457.214498 -155.988472 
L 461.063537 -152.46049 
L 465.402824 -148.932507 
L 470.111942 -145.404525 
L 475.014184 -141.876543 
L 479.883509 -138.348561 
L 484.459351 -134.820579 
L 488.468376 -131.292597 
L 491.650868 -127.764614 
L 493.78829 -124.236632 
L 494.727972 -120.70865 
L 494.401066 -117.180668 
L 492.830818 -113.652686 
L 490.129775 -110.124703 
L 486.486402 -106.596721 
L 482.143301 -103.068739 
L 477.370532 -99.540757 
L 472.438112 -96.012775 
L 467.591505 -92.484792 
L 463.033082 -88.95681 
L 458.911169 -85.428828 
L 455.31691 -81.900846 
L 452.287933 -78.372864 
L 449.816975 -74.844881 
z
" style="stroke: #4c4c4c; stroke-width: 1.25"/>
    </defs>
    <g clip-path="url(#pbac9bd9449)">
     <use xlink:href="#ma900298b8d" x="0" y="504" style="fill: #5f9e6e; stroke: #4c4c4c; stroke-width: 1.25"/>
    </g>
   </g>
   <g id="PolyCollection_4">
    <defs>
     <path id="m46510f64d6" d="M 579.989052 -73.08 
L 573.450948 -73.08 
L 572.33574 -76.643636 
L 570.975337 -80.207273 
L 569.365949 -83.770909 
L 567.522223 -87.334545 
L 565.480846 -90.898182 
L 563.302264 -94.461818 
L 561.06979 -98.025455 
L 558.885664 -101.589091 
L 556.864072 -105.152727 
L 555.121645 -108.716364 
L 553.766478 -112.28 
L 552.887073 -115.843636 
L 552.542781 -119.407273 
L 552.757161 -122.970909 
L 553.515305 -126.534545 
L 554.76553 -130.098182 
L 556.425194 -133.661818 
L 558.389706 -137.225455 
L 560.543378 -140.789091 
L 562.770556 -144.352727 
L 564.965562 -147.916364 
L 567.04032 -151.48 
L 568.929008 -155.043636 
L 570.589624 -158.607273 
L 572.002815 -162.170909 
L 573.168633 -165.734545 
L 574.102066 -169.298182 
L 574.82814 -172.861818 
L 575.377288 -176.425455 
L 575.781459 -179.989091 
L 576.071195 -183.552727 
L 576.273736 -187.116364 
L 576.412035 -190.68 
L 576.504505 -194.243636 
L 576.565268 -197.807273 
L 576.604707 -201.370909 
L 576.630147 -204.934545 
L 576.646549 -208.498182 
L 576.657136 -212.061818 
L 576.663917 -215.625455 
L 576.6681 -219.189091 
L 576.670396 -222.752727 
L 576.671232 -226.316364 
L 576.670896 -229.88 
L 576.669619 -233.443636 
L 576.667623 -237.007273 
L 576.665133 -240.570909 
L 576.662381 -244.134545 
L 576.659594 -247.698182 
L 576.656979 -251.261818 
L 576.654709 -254.825455 
L 576.652911 -258.389091 
L 576.651654 -261.952727 
L 576.650932 -265.516364 
L 576.650645 -269.08 
L 576.650558 -272.643636 
L 576.650235 -276.207273 
L 576.648915 -279.770909 
L 576.645323 -283.334545 
L 576.63737 -286.898182 
L 576.621712 -290.461818 
L 576.593124 -294.025455 
L 576.54365 -297.589091 
L 576.461513 -301.152727 
L 576.329801 -304.716364 
L 576.125002 -308.28 
L 575.815546 -311.843636 
L 575.360616 -315.407273 
L 574.709605 -318.970909 
L 573.80266 -322.534545 
L 572.572812 -326.098182 
L 570.950115 -329.661818 
L 568.868027 -333.225455 
L 566.271963 -336.789091 
L 563.129467 -340.352727 
L 559.440993 -343.916364 
L 555.249778 -347.48 
L 550.649003 -351.043636 
L 545.784407 -354.607273 
L 540.85084 -358.170909 
L 536.08201 -361.734545 
L 531.733644 -365.298182 
L 528.06152 -368.861818 
L 525.296852 -372.425455 
L 523.622295 -375.989091 
L 523.152 -379.552727 
L 523.918757 -383.116364 
L 525.87023 -386.68 
L 528.874886 -390.243636 
L 532.736681 -393.807273 
L 537.216226 -397.370909 
L 542.055251 -400.934545 
L 547.000925 -404.498182 
L 551.826877 -408.061818 
L 556.348661 -411.625455 
L 560.43247 -415.189091 
L 563.997109 -418.752727 
L 567.010186 -422.316364 
L 569.480141 -425.88 
L 583.959859 -425.88 
L 583.959859 -425.88 
L 586.429814 -422.316364 
L 589.442891 -418.752727 
L 593.00753 -415.189091 
L 597.091339 -411.625455 
L 601.613123 -408.061818 
L 606.439075 -404.498182 
L 611.384749 -400.934545 
L 616.223774 -397.370909 
L 620.703319 -393.807273 
L 624.565114 -390.243636 
L 627.56977 -386.68 
L 629.521243 -383.116364 
L 630.288 -379.552727 
L 629.817705 -375.989091 
L 628.143148 -372.425455 
L 625.37848 -368.861818 
L 621.706356 -365.298182 
L 617.35799 -361.734545 
L 612.58916 -358.170909 
L 607.655593 -354.607273 
L 602.790997 -351.043636 
L 598.190222 -347.48 
L 593.999007 -343.916364 
L 590.310533 -340.352727 
L 587.168037 -336.789091 
L 584.571973 -333.225455 
L 582.489885 -329.661818 
L 580.867188 -326.098182 
L 579.63734 -322.534545 
L 578.730395 -318.970909 
L 578.079384 -315.407273 
L 577.624454 -311.843636 
L 577.314998 -308.28 
L 577.110199 -304.716364 
L 576.978487 -301.152727 
L 576.89635 -297.589091 
L 576.846876 -294.025455 
L 576.818288 -290.461818 
L 576.80263 -286.898182 
L 576.794677 -283.334545 
L 576.791085 -279.770909 
L 576.789765 -276.207273 
L 576.789442 -272.643636 
L 576.789355 -269.08 
L 576.789068 -265.516364 
L 576.788346 -261.952727 
L 576.787089 -258.389091 
L 576.785291 -254.825455 
L 576.783021 -251.261818 
L 576.780406 -247.698182 
L 576.777619 -244.134545 
L 576.774867 -240.570909 
L 576.772377 -237.007273 
L 576.770381 -233.443636 
L 576.769104 -229.88 
L 576.768768 -226.316364 
L 576.769604 -222.752727 
L 576.7719 -219.189091 
L 576.776083 -215.625455 
L 576.782864 -212.061818 
L 576.793451 -208.498182 
L 576.809853 -204.934545 
L 576.835293 -201.370909 
L 576.874732 -197.807273 
L 576.935495 -194.243636 
L 577.027965 -190.68 
L 577.166264 -187.116364 
L 577.368805 -183.552727 
L 577.658541 -179.989091 
L 578.062712 -176.425455 
L 578.61186 -172.861818 
L 579.337934 -169.298182 
L 580.271367 -165.734545 
L 581.437185 -162.170909 
L 582.850376 -158.607273 
L 584.510992 -155.043636 
L 586.39968 -151.48 
L 588.474438 -147.916364 
L 590.669444 -144.352727 
L 592.896622 -140.789091 
L 595.050294 -137.225455 
L 597.014806 -133.661818 
L 598.67447 -130.098182 
L 599.924695 -126.534545 
L 600.682839 -122.970909 
L 600.897219 -119.407273 
L 600.552927 -115.843636 
L 599.673522 -112.28 
L 598.318355 -108.716364 
L 596.575928 -105.152727 
L 594.554336 -101.589091 
L 592.37021 -98.025455 
L 590.137736 -94.461818 
L 587.959154 -90.898182 
L 585.917777 -87.334545 
L 584.074051 -83.770909 
L 582.464663 -80.207273 
L 581.10426 -76.643636 
L 579.989052 -73.08 
z
" style="stroke: #4c4c4c; stroke-width: 1.25"/>
    </defs>
    <g clip-path="url(#pbac9bd9449)">
     <use xlink:href="#m46510f64d6" x="0" y="504" style="fill: #b55d60; stroke: #4c4c4c; stroke-width: 1.25"/>
    </g>
   </g>
   <g id="PolyCollection_5">
    <defs>
     <path id="m8329de6f87" d="M 717.997364 -109.371833 
L 703.282636 -109.371833 
L 691.832224 -112.202301 
L 674.83814 -115.032769 
L 659.890995 -117.863237 
L 657.072 -120.693705 
L 668.533885 -123.524173 
L 685.992938 -126.354641 
L 699.894352 -129.185109 
L 707.148241 -132.015577 
L 709.791087 -134.846045 
L 710.481238 -137.676513 
L 710.611535 -140.506981 
L 710.628832 -143.337449 
L 710.63023 -146.167917 
L 710.630584 -148.998385 
L 710.631239 -151.828853 
L 710.631957 -154.659321 
L 710.632544 -157.489789 
L 710.632999 -160.320257 
L 710.633391 -163.150725 
L 710.633739 -165.981193 
L 710.634036 -168.811661 
L 710.634284 -171.642129 
L 710.63431 -174.472597 
L 710.633676 -177.303065 
L 710.632232 -180.133533 
L 710.630801 -182.964001 
L 710.630664 -185.794469 
L 710.632117 -188.624938 
L 710.634046 -191.455406 
L 710.635019 -194.285874 
L 710.634255 -197.116342 
L 710.631814 -199.94681 
L 710.628673 -202.777278 
L 710.626496 -205.607746 
L 710.626387 -208.438214 
L 710.627679 -211.268682 
L 710.628556 -214.09915 
L 710.627734 -216.929618 
L 710.624574 -219.760086 
L 710.616217 -222.590554 
L 710.593244 -225.421022 
L 710.541095 -228.25149 
L 710.456976 -231.081958 
L 710.372054 -233.912426 
L 710.34007 -236.742894 
L 710.384941 -239.573362 
L 710.472845 -242.40383 
L 710.550776 -245.234298 
L 710.59542 -248.064766 
L 710.615009 -250.895234 
L 710.623977 -253.725702 
L 710.629245 -256.55617 
L 710.632226 -259.386638 
L 710.633316 -262.217106 
L 710.633048 -265.047574 
L 710.631664 -267.878042 
L 710.629214 -270.70851 
L 710.626325 -273.538978 
L 710.624424 -276.369446 
L 710.624604 -279.199914 
L 710.62631 -282.030382 
L 710.62772 -284.86085 
L 710.627612 -287.691318 
L 710.626642 -290.521786 
L 710.626505 -293.352254 
L 710.627918 -296.182722 
L 710.630017 -299.01319 
L 710.631678 -301.843658 
L 710.632517 -304.674126 
L 710.632517 -307.504594 
L 710.63166 -310.335062 
L 710.630255 -313.165531 
L 710.629009 -315.995999 
L 710.628476 -318.826467 
L 710.628699 -321.656935 
L 710.629355 -324.487403 
L 710.630022 -327.317871 
L 710.630341 -330.148339 
L 710.63019 -332.978807 
L 710.629807 -335.809275 
L 710.629627 -338.639743 
L 710.629901 -341.470211 
L 710.63046 -344.300679 
L 710.630822 -347.131147 
L 710.630498 -349.961615 
L 710.629126 -352.792083 
L 710.626191 -355.622551 
L 710.61999 -358.453019 
L 710.602697 -361.283487 
L 710.540046 -364.113955 
L 710.324373 -366.944423 
L 709.748541 -369.774891 
L 708.653682 -372.605359 
L 707.283518 -375.435827 
L 706.389582 -378.266295 
L 706.622054 -381.096763 
L 707.808662 -383.927231 
L 709.153551 -386.757699 
L 710.058739 -389.588167 
L 711.221261 -389.588167 
L 711.221261 -389.588167 
L 712.126449 -386.757699 
L 713.471338 -383.927231 
L 714.657946 -381.096763 
L 714.890418 -378.266295 
L 713.996482 -375.435827 
L 712.626318 -372.605359 
L 711.531459 -369.774891 
L 710.955627 -366.944423 
L 710.739954 -364.113955 
L 710.677303 -361.283487 
L 710.66001 -358.453019 
L 710.653809 -355.622551 
L 710.650874 -352.792083 
L 710.649502 -349.961615 
L 710.649178 -347.131147 
L 710.64954 -344.300679 
L 710.650099 -341.470211 
L 710.650373 -338.639743 
L 710.650193 -335.809275 
L 710.64981 -332.978807 
L 710.649659 -330.148339 
L 710.649978 -327.317871 
L 710.650645 -324.487403 
L 710.651301 -321.656935 
L 710.651524 -318.826467 
L 710.650991 -315.995999 
L 710.649745 -313.165531 
L 710.64834 -310.335062 
L 710.647483 -307.504594 
L 710.647483 -304.674126 
L 710.648322 -301.843658 
L 710.649983 -299.01319 
L 710.652082 -296.182722 
L 710.653495 -293.352254 
L 710.653358 -290.521786 
L 710.652388 -287.691318 
L 710.65228 -284.86085 
L 710.65369 -282.030382 
L 710.655396 -279.199914 
L 710.655576 -276.369446 
L 710.653675 -273.538978 
L 710.650786 -270.70851 
L 710.648336 -267.878042 
L 710.646952 -265.047574 
L 710.646684 -262.217106 
L 710.647774 -259.386638 
L 710.650755 -256.55617 
L 710.656023 -253.725702 
L 710.664991 -250.895234 
L 710.68458 -248.064766 
L 710.729224 -245.234298 
L 710.807155 -242.40383 
L 710.895059 -239.573362 
L 710.93993 -236.742894 
L 710.907946 -233.912426 
L 710.823024 -231.081958 
L 710.738905 -228.25149 
L 710.686756 -225.421022 
L 710.663783 -222.590554 
L 710.655426 -219.760086 
L 710.652266 -216.929618 
L 710.651444 -214.09915 
L 710.652321 -211.268682 
L 710.653613 -208.438214 
L 710.653504 -205.607746 
L 710.651327 -202.777278 
L 710.648186 -199.94681 
L 710.645745 -197.116342 
L 710.644981 -194.285874 
L 710.645954 -191.455406 
L 710.647883 -188.624938 
L 710.649336 -185.794469 
L 710.649199 -182.964001 
L 710.647768 -180.133533 
L 710.646324 -177.303065 
L 710.64569 -174.472597 
L 710.645716 -171.642129 
L 710.645964 -168.811661 
L 710.646261 -165.981193 
L 710.646609 -163.150725 
L 710.647001 -160.320257 
L 710.647456 -157.489789 
L 710.648043 -154.659321 
L 710.648761 -151.828853 
L 710.649416 -148.998385 
L 710.64977 -146.167917 
L 710.651168 -143.337449 
L 710.668465 -140.506981 
L 710.798762 -137.676513 
L 711.488913 -134.846045 
L 714.131759 -132.015577 
L 721.385648 -129.185109 
L 735.287062 -126.354641 
L 752.746115 -123.524173 
L 764.208 -120.693705 
L 761.389005 -117.863237 
L 746.44186 -115.032769 
L 729.447776 -112.202301 
L 717.997364 -109.371833 
z
" style="stroke: #4c4c4c; stroke-width: 1.25"/>
    </defs>
    <g clip-path="url(#pbac9bd9449)">
     <use xlink:href="#m8329de6f87" x="0" y="504" style="fill: #857aab; stroke: #4c4c4c; stroke-width: 1.25"/>
    </g>
   </g>
   <g id="line2d_9">
    <path d="M 174.96 384.202737 
L 174.96 124.837263 
" clip-path="url(#pbac9bd9449)" style="fill: none; stroke: #4c4c4c; stroke-width: 1.875; stroke-linecap: round"/>
   </g>
   <g id="line2d_10">
    <path d="M 174.96 384.202737 
L 174.96 124.837263 
" clip-path="url(#pbac9bd9449)" style="fill: none; stroke: #4c4c4c; stroke-width: 5.625; stroke-linecap: round"/>
   </g>
   <g id="line2d_11">
    <path d="M 174.96 124.837263 
" clip-path="url(#pbac9bd9449)" style="fill: none; stroke: #4c4c4c; stroke-width: 1.5; stroke-linecap: round"/>
    <defs>
     <path id="m60d912c439" d="M 2.34375 0 
L -2.34375 -0 
" style="stroke: #ffffff; stroke-width: 1.125"/>
    </defs>
    <g clip-path="url(#pbac9bd9449)">
     <use xlink:href="#m60d912c439" x="174.96" y="124.837263" style="fill: #ffffff; stroke: #ffffff; stroke-width: 1.125"/>
    </g>
   </g>
   <g id="line2d_12">
    <path d="M 308.88 384.202737 
L 308.88 384.202737 
" clip-path="url(#pbac9bd9449)" style="fill: none; stroke: #4c4c4c; stroke-width: 1.875; stroke-linecap: round"/>
   </g>
   <g id="line2d_13">
    <path d="M 308.88 384.202737 
L 308.88 384.202737 
" clip-path="url(#pbac9bd9449)" style="fill: none; stroke: #4c4c4c; stroke-width: 5.625; stroke-linecap: round"/>
   </g>
   <g id="line2d_14">
    <path d="M 308.88 384.202737 
" clip-path="url(#pbac9bd9449)" style="fill: none; stroke: #4c4c4c; stroke-width: 1.5; stroke-linecap: round"/>
    <g clip-path="url(#pbac9bd9449)">
     <use xlink:href="#m60d912c439" x="308.88" y="384.202737" style="fill: #ffffff; stroke: #ffffff; stroke-width: 1.125"/>
    </g>
   </g>
   <g id="line2d_15">
    <path d="M 442.8 384.202737 
L 442.8 124.837263 
" clip-path="url(#pbac9bd9449)" style="fill: none; stroke: #4c4c4c; stroke-width: 1.875; stroke-linecap: round"/>
   </g>
   <g id="line2d_16">
    <path d="M 442.8 384.202737 
L 442.8 124.837263 
" clip-path="url(#pbac9bd9449)" style="fill: none; stroke: #4c4c4c; stroke-width: 5.625; stroke-linecap: round"/>
   </g>
   <g id="line2d_17">
    <path d="M 442.8 229.762387 
" clip-path="url(#pbac9bd9449)" style="fill: none; stroke: #4c4c4c; stroke-width: 1.5; stroke-linecap: round"/>
    <g clip-path="url(#pbac9bd9449)">
     <use xlink:href="#m60d912c439" x="442.8" y="229.762387" style="fill: #ffffff; stroke: #ffffff; stroke-width: 1.125"/>
    </g>
   </g>
   <g id="line2d_18">
    <path d="M 576.72 384.202737 
L 576.72 124.837263 
" clip-path="url(#pbac9bd9449)" style="fill: none; stroke: #4c4c4c; stroke-width: 1.875; stroke-linecap: round"/>
   </g>
   <g id="line2d_19">
    <path d="M 576.72 384.202737 
L 576.72 124.837263 
" clip-path="url(#pbac9bd9449)" style="fill: none; stroke: #4c4c4c; stroke-width: 5.625; stroke-linecap: round"/>
   </g>
   <g id="line2d_20">
    <path d="M 576.72 124.837263 
" clip-path="url(#pbac9bd9449)" style="fill: none; stroke: #4c4c4c; stroke-width: 1.5; stroke-linecap: round"/>
    <g clip-path="url(#pbac9bd9449)">
     <use xlink:href="#m60d912c439" x="576.72" y="124.837263" style="fill: #ffffff; stroke: #ffffff; stroke-width: 1.125"/>
    </g>
   </g>
   <g id="line2d_21">
    <path d="M 710.64 384.202737 
L 710.64 384.202737 
" clip-path="url(#pbac9bd9449)" style="fill: none; stroke: #4c4c4c; stroke-width: 1.875; stroke-linecap: round"/>
   </g>
   <g id="line2d_22">
    <path d="M 710.64 384.202737 
L 710.64 384.202737 
" clip-path="url(#pbac9bd9449)" style="fill: none; stroke: #4c4c4c; stroke-width: 5.625; stroke-linecap: round"/>
   </g>
   <g id="line2d_23">
    <path d="M 710.64 384.202737 
" clip-path="url(#pbac9bd9449)" style="fill: none; stroke: #4c4c4c; stroke-width: 1.5; stroke-linecap: round"/>
    <g clip-path="url(#pbac9bd9449)">
     <use xlink:href="#m60d912c439" x="710.64" y="384.202737" style="fill: #ffffff; stroke: #ffffff; stroke-width: 1.125"/>
    </g>
   </g>
   <g id="patch_3">
    <path d="M 108 448.56 
L 108 60.48 
" style="fill: none; stroke: #ffffff; stroke-width: 1.25; stroke-linejoin: miter; stroke-linecap: square"/>
   </g>
   <g id="patch_4">
    <path d="M 108 448.56 
L 777.6 448.56 
" style="fill: none; stroke: #ffffff; stroke-width: 1.25; stroke-linejoin: miter; stroke-linecap: square"/>
   </g>
   <g id="text_16">
    <!-- Distributions of Average Secured Endpoints Across Datasets and Combined -->
    <g style="fill: #262626" transform="translate(140.803594 54.48) scale(0.18 -0.18)">
     <defs>
      <path id="ArialMT-66" d="M 556 0 
L 556 2881 
L 59 2881 
L 59 3319 
L 556 3319 
L 556 3672 
Q 556 4006 616 4169 
Q 697 4388 901 4523 
Q 1106 4659 1475 4659 
Q 1713 4659 2000 4603 
L 1916 4113 
Q 1741 4144 1584 4144 
Q 1328 4144 1222 4034 
Q 1116 3925 1116 3625 
L 1116 3319 
L 1763 3319 
L 1763 2881 
L 1116 2881 
L 1116 0 
L 556 0 
z
" transform="scale(0.015625)"/>
     </defs>
     <use xlink:href="#ArialMT-44"/>
     <use xlink:href="#ArialMT-69" x="72.216797"/>
     <use xlink:href="#ArialMT-73" x="94.433594"/>
     <use xlink:href="#ArialMT-74" x="144.433594"/>
     <use xlink:href="#ArialMT-72" x="172.216797"/>
     <use xlink:href="#ArialMT-69" x="205.517578"/>
     <use xlink:href="#ArialMT-62" x="227.734375"/>
     <use xlink:href="#ArialMT-75" x="283.349609"/>
     <use xlink:href="#ArialMT-74" x="338.964844"/>
     <use xlink:href="#ArialMT-69" x="366.748047"/>
     <use xlink:href="#ArialMT-6f" x="388.964844"/>
     <use xlink:href="#ArialMT-6e" x="444.580078"/>
     <use xlink:href="#ArialMT-73" x="500.195312"/>
     <use xlink:href="#ArialMT-20" x="550.195312"/>
     <use xlink:href="#ArialMT-6f" x="577.978516"/>
     <use xlink:href="#ArialMT-66" x="633.59375"/>
     <use xlink:href="#ArialMT-20" x="661.376953"/>
     <use xlink:href="#ArialMT-41" x="683.660156"/>
     <use xlink:href="#ArialMT-76" x="748.609375"/>
     <use xlink:href="#ArialMT-65" x="798.609375"/>
     <use xlink:href="#ArialMT-72" x="854.224609"/>
     <use xlink:href="#ArialMT-61" x="887.525391"/>
     <use xlink:href="#ArialMT-67" x="943.140625"/>
     <use xlink:href="#ArialMT-65" x="998.755859"/>
     <use xlink:href="#ArialMT-20" x="1054.371094"/>
     <use xlink:href="#ArialMT-53" x="1082.154297"/>
     <use xlink:href="#ArialMT-65" x="1148.853516"/>
     <use xlink:href="#ArialMT-63" x="1204.46875"/>
     <use xlink:href="#ArialMT-75" x="1254.46875"/>
     <use xlink:href="#ArialMT-72" x="1310.083984"/>
     <use xlink:href="#ArialMT-65" x="1343.384766"/>
     <use xlink:href="#ArialMT-64" x="1399"/>
     <use xlink:href="#ArialMT-20" x="1454.615234"/>
     <use xlink:href="#ArialMT-45" x="1482.398438"/>
     <use xlink:href="#ArialMT-6e" x="1549.097656"/>
     <use xlink:href="#ArialMT-64" x="1604.712891"/>
     <use xlink:href="#ArialMT-70" x="1660.328125"/>
     <use xlink:href="#ArialMT-6f" x="1715.943359"/>
     <use xlink:href="#ArialMT-69" x="1771.558594"/>
     <use xlink:href="#ArialMT-6e" x="1793.775391"/>
     <use xlink:href="#ArialMT-74" x="1849.390625"/>
     <use xlink:href="#ArialMT-73" x="1877.173828"/>
     <use xlink:href="#ArialMT-20" x="1927.173828"/>
     <use xlink:href="#ArialMT-41" x="1949.457031"/>
     <use xlink:href="#ArialMT-63" x="2016.15625"/>
     <use xlink:href="#ArialMT-72" x="2066.15625"/>
     <use xlink:href="#ArialMT-6f" x="2099.457031"/>
     <use xlink:href="#ArialMT-73" x="2155.072266"/>
     <use xlink:href="#ArialMT-73" x="2205.072266"/>
     <use xlink:href="#ArialMT-20" x="2255.072266"/>
     <use xlink:href="#ArialMT-44" x="2282.855469"/>
     <use xlink:href="#ArialMT-61" x="2355.072266"/>
     <use xlink:href="#ArialMT-74" x="2410.6875"/>
     <use xlink:href="#ArialMT-61" x="2438.470703"/>
     <use xlink:href="#ArialMT-73" x="2494.085938"/>
     <use xlink:href="#ArialMT-65" x="2544.085938"/>
     <use xlink:href="#ArialMT-74" x="2599.701172"/>
     <use xlink:href="#ArialMT-73" x="2627.484375"/>
     <use xlink:href="#ArialMT-20" x="2677.484375"/>
     <use xlink:href="#ArialMT-61" x="2705.267578"/>
     <use xlink:href="#ArialMT-6e" x="2760.882812"/>
     <use xlink:href="#ArialMT-64" x="2816.498047"/>
     <use xlink:href="#ArialMT-20" x="2872.113281"/>
     <use xlink:href="#ArialMT-43" x="2899.896484"/>
     <use xlink:href="#ArialMT-6f" x="2972.113281"/>
     <use xlink:href="#ArialMT-6d" x="3027.728516"/>
     <use xlink:href="#ArialMT-62" x="3111.029297"/>
     <use xlink:href="#ArialMT-69" x="3166.644531"/>
     <use xlink:href="#ArialMT-6e" x="3188.861328"/>
     <use xlink:href="#ArialMT-65" x="3244.476562"/>
     <use xlink:href="#ArialMT-64" x="3300.091797"/>
    </g>
   </g>
  </g>
 </g>
 <defs>
  <clipPath id="pbac9bd9449">
   <rect x="108" y="60.48" width="669.6" height="388.08"/>
  </clipPath>
 </defs>
</svg>
